<?xml version="1.0" encoding="UTF-8" standalone="no"?>
<!--?xml version="1.0" encoding="utf-8"?-->

<!-- Generator: Adobe Illustrator 15.0.0, SVG Export Plug-In . SVG Version: 6.00 Build 0)  -->

<svg
   xmlns:dc="http://purl.org/dc/elements/1.1/"
   xmlns:cc="http://creativecommons.org/ns#"
   xmlns:rdf="http://www.w3.org/1999/02/22-rdf-syntax-ns#"
   xmlns:svg="http://www.w3.org/2000/svg"
   xmlns="http://www.w3.org/2000/svg"
   xmlns:xlink="http://www.w3.org/1999/xlink"
   xmlns:sodipodi="http://sodipodi.sourceforge.net/DTD/sodipodi-0.dtd"
   xmlns:inkscape="http://www.inkscape.org/namespaces/inkscape"
   width="304.04605"
   height="194.33876"
   viewBox="0 0 304.04605 194.33877"
   version="1.1"
   id="svg487"
   sodipodi:docname="fruit wide.svg"
   inkscape:export-filename="C:\Users\Amir Bambeer\Desktop\nicefruit.png"
   inkscape:export-xdpi="252.59332"
   inkscape:export-ydpi="252.59332"
   inkscape:version="0.92.0 r15299">
  <metadata
     id="metadata493">
    <rdf:RDF>
      <cc:Work
         rdf:about="">
        <dc:format>image/svg+xml</dc:format>
        <dc:type
           rdf:resource="http://purl.org/dc/dcmitype/StillImage" />
        <dc:title></dc:title>
      </cc:Work>
    </rdf:RDF>
  </metadata>
  <defs
     id="defs491" />
  <sodipodi:namedview
     pagecolor="#ffffff"
     bordercolor="#666666"
     borderopacity="1"
     objecttolerance="10"
     gridtolerance="10"
     guidetolerance="10"
     inkscape:pageopacity="0"
     inkscape:pageshadow="2"
     inkscape:window-width="1920"
     inkscape:window-height="1018"
     id="namedview489"
     showgrid="false"
     inkscape:zoom="4.821638"
     inkscape:cx="152.02303"
     inkscape:cy="131.48526"
     inkscape:window-x="-8"
     inkscape:window-y="-8"
     inkscape:window-maximized="1"
     inkscape:current-layer="svg487"
     fit-margin-top="20"
     fit-margin-left="20"
     fit-margin-right="20"
     fit-margin-bottom="20" />
  <g
     id="g10"
     transform="translate(5.4710448,103.30438)">
    <g
       id="g8">
      <defs
         id="defs3">
        <rect
           id="SVGID_1_"
           x="6.105"
           y="35.789001"
           width="35.070999"
           height="40.668999" />
      </defs>
      <clipPath
         id="SVGID_2_">
        <use
           xlink:href="#SVGID_1_"
           overflow="visible"
           id="use5"
           style="overflow:visible"
           x="0"
           y="0"
           width="100%"
           height="100%" />
      </clipPath>
    </g>
  </g>
  <g
     id="g4761"
     transform="translate(38.569637,-367.60206)">
    <g
       transform="translate(0,447.667)"
       id="g13">
      <path
         inkscape:connector-curvature="0"
         d="m 23.378,45.167 c 0,0 -0.612,-0.951 -5.467,0.606 -5.293,1.698 -6.885,-4.285 -6.885,-4.285 0,0 2.257,0.194 5.521,-0.712 3.264,-0.906 6.497,0.867 6.831,4.391"
         id="path-0"
         style="fill:#74b84b" />
    </g>
    <g
       transform="translate(0,447.667)"
       id="g16">
      <path
         inkscape:connector-curvature="0"
         d="m 23.646,44.643 c 0,0 0.707,-0.52 3.309,1.6 2.837,2.312 5.834,-1.445 5.834,-1.445 0,0 -1.513,-0.355 -3.309,-1.685 -1.794,-1.328 -4.456,-0.814 -5.834,1.53"
         id="path-1"
         style="fill:#74b84b" />
    </g>
    <g
       transform="translate(0,447.667)"
       id="g19">
      <path
         inkscape:connector-curvature="0"
         d="m 25.135,40.427 c 0,0 -3.164,3.173 -1.593,8.52 0,0 -0.833,-4.956 2.424,-8.032 -0.001,-10e-4 -0.537,-0.363 -0.831,-0.488"
         id="path-2"
         style="fill:#764c24" />
    </g>
    <g
       transform="translate(0,447.667)"
       id="g22">
      <path
         inkscape:connector-curvature="0"
         d="m 21.948,46.845 c -0.86,-0.227 -1.432,0.394 -2.745,0.865 -1.963,0.705 -4.486,2.144 -6.662,5.182 -2.968,4.144 -3.821,17.584 9.693,18.103 10.705,0.411 14.731,-8.157 13.166,-14.417 -0.728,-2.912 -2.52,-7.338 -7.559,-8.732 -2.493,-0.69 -2.447,-1.24 -3.194,-1.08 -1.259,0.269 -1.635,0.359 -2.699,0.079"
         id="path-3"
         style="fill:#ff6600" />
    </g>
    <g
       transform="translate(0,447.667)"
       id="g25">
      <path
         inkscape:connector-curvature="0"
         d="m 35.401,56.577 c -0.728,-2.912 -2.52,-7.338 -7.559,-8.733 -0.173,-0.047 -0.333,-0.095 -0.482,-0.141 2.752,2.189 3.951,5.473 4.528,7.85 1.404,5.785 -1.368,13.344 -8.989,15.454 10.206,0.039 14.034,-8.301 12.502,-14.43"
         id="path-4"
         style="fill:#db5800" />
    </g>
    <g
       transform="translate(0,447.667)"
       id="g36">
      <defs
         id="defs28">
        <rect
           height="13.318"
           width="5.2350001"
           y="50.409"
           x="12.259"
           id="SVGID_3_" />
      </defs>
      <clipPath
         id="SVGID_4_">
        <use
           height="100%"
           width="100%"
           y="0"
           x="0"
           style="overflow:visible"
           id="use30"
           overflow="visible"
           xlink:href="#SVGID_3_" />
      </clipPath>
      <g
         id="g34"
         clip-path="url(#SVGID_4_)">
        <path
           inkscape:connector-curvature="0"
           d="m 17.494,50.409 c 0,0 -8.234,2.52 -4.049,13.318 0,0 -1.755,-9.358 4.049,-13.318"
           id="path-5"
           style="fill:#ffffff" />
      </g>
    </g>
  </g>
  <g
     id="g4402"
     transform="translate(-4.7402232,-431.68656)">
    <g
       transform="translate(0,447.667)"
       id="g41">
      <g
         id="g39">
        <path
           inkscape:connector-curvature="0"
           d="M 127.6,10.089"
           id="path-6"
           style="fill:none;stroke:#6083a8;stroke-width:1.5;stroke-linecap:round;stroke-linejoin:round;stroke-dasharray:2.05, 6.15" />
      </g>
    </g>
    <g
       transform="translate(0,447.667)"
       id="g44">
      <path
         inkscape:connector-curvature="0"
         d="m 120.364,20.261 c 0,0 -18.81,-1.525 -17.956,14.575 0.74,13.96 14.401,23.499 19.987,23.431 4.994,-0.061 13.599,-6.893 17.016,-18.3 3.417,-11.408 1.643,-19.954 -19.047,-19.706"
         id="path-7"
         style="fill:#eb004a" />
    </g>
    <g
       transform="translate(0,447.667)"
       id="g47">
      <path
         inkscape:connector-curvature="0"
         d="m 129.764,20.95 c 7.404,3.143 7.606,10.007 5.311,18.375 -2.949,10.749 -10.01,17.534 -14.779,18.619 0.777,0.215 1.489,0.33 2.101,0.323 4.994,-0.061 13.599,-6.893 17.016,-18.301 2.8,-9.355 2.102,-16.782 -9.649,-19.016"
         id="path-8"
         style="fill:#b00038" />
    </g>
    <g
       transform="translate(0,447.667)"
       id="g50">
      <path
         inkscape:connector-curvature="0"
         d="m 109.852,30.883 c 0.083,0.848 -0.259,1.563 -0.763,1.6 -0.503,0.036 -0.978,-0.622 -1.061,-1.469 -0.082,-0.847 0.259,-1.563 0.763,-1.6 0.504,-0.037 0.979,0.622 1.061,1.469"
         id="path-9"
         style="fill:#ffffff" />
    </g>
    <g
       transform="translate(0,447.667)"
       id="g53">
      <path
         inkscape:connector-curvature="0"
         d="m 115.782,32.751 c 0.083,0.847 -0.259,1.563 -0.763,1.6 -0.503,0.036 -0.979,-0.622 -1.061,-1.469 -0.082,-0.848 0.259,-1.564 0.763,-1.6 0.504,-0.036 0.979,0.622 1.061,1.469"
         id="path-10"
         style="fill:#ffffff" />
    </g>
    <g
       transform="translate(0,447.667)"
       id="g56">
      <path
         inkscape:connector-curvature="0"
         d="m 109.215,38.853 c 0.083,0.848 -0.259,1.563 -0.763,1.6 -0.503,0.036 -0.979,-0.622 -1.061,-1.469 -0.082,-0.847 0.259,-1.563 0.763,-1.6 0.504,-0.037 0.979,0.621 1.061,1.469"
         id="path-11"
         style="fill:#ffffff" />
    </g>
    <g
       transform="translate(0,447.667)"
       id="g59">
      <path
         inkscape:connector-curvature="0"
         d="m 117.305,39.664 c 0.082,0.847 -0.259,1.563 -0.763,1.6 -0.504,0.036 -0.979,-0.622 -1.061,-1.469 -0.083,-0.848 0.259,-1.564 0.763,-1.6 0.503,-0.037 0.979,0.621 1.061,1.469"
         id="path-12"
         style="fill:#ffffff" />
    </g>
    <g
       transform="translate(0,447.667)"
       id="g62">
      <path
         inkscape:connector-curvature="0"
         d="m 112.983,44.223 c 0.083,0.848 -0.259,1.563 -0.763,1.6 -0.504,0.036 -0.979,-0.622 -1.061,-1.469 -0.082,-0.848 0.259,-1.563 0.763,-1.6 0.504,-0.036 0.979,0.621 1.061,1.469"
         id="path-13"
         style="fill:#ffffff" />
    </g>
    <g
       transform="translate(0,447.667)"
       id="g65">
      <path
         inkscape:connector-curvature="0"
         d="m 123.238,52.385 c 0.082,0.848 -0.26,1.563 -0.764,1.6 -0.503,0.036 -0.978,-0.622 -1.061,-1.469 -0.082,-0.847 0.259,-1.564 0.763,-1.599 0.505,-0.037 0.979,0.621 1.062,1.468"
         id="path-14"
         style="fill:#ffffff" />
    </g>
    <g
       transform="translate(0,447.667)"
       id="g68">
      <path
         inkscape:connector-curvature="0"
         d="m 121.835,43.204 c 0.082,0.847 -0.259,1.563 -0.763,1.6 -0.503,0.036 -0.979,-0.622 -1.061,-1.469 -0.082,-0.848 0.259,-1.563 0.763,-1.6 0.504,-0.037 0.979,0.621 1.061,1.469"
         id="path-15"
         style="fill:#ffffff" />
    </g>
    <g
       transform="translate(0,447.667)"
       id="g71">
      <path
         inkscape:connector-curvature="0"
         d="m 126.827,46.86 c 0.082,0.848 -0.26,1.563 -0.764,1.6 -0.503,0.036 -0.978,-0.622 -1.061,-1.469 -0.082,-0.848 0.259,-1.563 0.763,-1.6 0.504,-0.037 0.979,0.622 1.062,1.469"
         id="path-16"
         style="fill:#ffffff" />
    </g>
    <g
       transform="translate(0,447.667)"
       id="g74">
      <path
         inkscape:connector-curvature="0"
         d="m 122.283,33.114 c 0.082,0.847 -0.26,1.563 -0.763,1.599 -0.504,0.036 -0.979,-0.621 -1.061,-1.468 -0.082,-0.848 0.259,-1.564 0.762,-1.6 0.505,-0.036 0.98,0.621 1.062,1.469"
         id="path-17"
         style="fill:#ffffff" />
    </g>
    <g
       transform="translate(0,447.667)"
       id="g77">
      <path
         inkscape:connector-curvature="0"
         d="m 128.833,32.281 c 0.083,0.848 -0.259,1.563 -0.762,1.6 -0.504,0.036 -0.979,-0.622 -1.062,-1.469 -0.082,-0.847 0.26,-1.563 0.763,-1.6 0.504,-0.036 0.979,0.621 1.061,1.469"
         id="path-18"
         style="fill:#ffffff" />
    </g>
    <g
       transform="translate(0,447.667)"
       id="g80">
      <path
         inkscape:connector-curvature="0"
         d="m 127.302,39.269 c 0.082,0.848 -0.26,1.563 -0.764,1.6 -0.503,0.036 -0.979,-0.622 -1.061,-1.469 -0.082,-0.847 0.259,-1.563 0.763,-1.6 0.504,-0.037 0.979,0.621 1.062,1.469"
         id="path-19"
         style="fill:#ffffff" />
    </g>
    <g
       transform="translate(0,447.667)"
       id="g83">
      <path
         inkscape:connector-curvature="0"
         d="m 117.636,49.564 c 0.082,0.848 -0.26,1.563 -0.764,1.6 -0.503,0.036 -0.979,-0.622 -1.061,-1.469 -0.082,-0.848 0.259,-1.563 0.763,-1.6 0.504,-0.037 0.979,0.622 1.062,1.469"
         id="path-20"
         style="fill:#ffffff" />
    </g>
    <g
       transform="translate(0,447.667)"
       id="g86">
      <path
         inkscape:connector-curvature="0"
         d="m 130.002,18.57 c 4.759,-4.882 3.521,-7.306 3.521,-7.306 -7.322,0.829 -10.37,6.466 -10.37,6.466 0.976,-11.001 -0.762,-13.352 -0.762,-13.352 -2.986,-0.622 -3.9,1.428 -3.9,1.428 4.281,7.137 3.615,12.008 3.615,12.008 -3.07,-5.355 -8.087,-6.802 -8.087,-6.802 -1.08,4.659 1.617,7.054 1.617,7.054 -6.779,-3.814 -9.989,-1.596 -9.989,-1.596 0,0 7.889,6.908 16.616,6.908 11.421,0 16.207,-5.648 16.207,-5.648 -3.422,-1.157 -8.468,0.84 -8.468,0.84"
         id="path-21"
         style="fill:#74b84b" />
    </g>
  </g>
  <g
     id="g4712"
     transform="translate(-8.2613492,-411.96825)">
    <g
       transform="translate(0,447.667)"
       id="g235">
      <g
         id="g218">
        <path
           inkscape:connector-curvature="0"
           d="M 151.378,77.238"
           id="path-57"
           style="fill:none;stroke:#6083a8;stroke-width:1.5;stroke-linecap:round;stroke-linejoin:round;stroke-dasharray:1.946, 5.839" />
      </g>
      <g
         id="g221">
        <path
           inkscape:connector-curvature="0"
           d="M 141.562,84.726"
           id="path-58"
           style="fill:none;stroke:#6083a8;stroke-width:1.5;stroke-linecap:round;stroke-linejoin:round;stroke-dasharray:1.947, 5.84" />
      </g>
      <g
         id="g224">
        <path
           inkscape:connector-curvature="0"
           d="M 138.04,75.89"
           id="path-59"
           style="fill:none;stroke:#6083a8;stroke-width:1.5;stroke-linecap:round;stroke-linejoin:round;stroke-dasharray:1.947, 5.84" />
      </g>
      <g
         id="g227">
        <path
           inkscape:connector-curvature="0"
           d="M 148.771,76.519"
           id="path-60"
           style="fill:none;stroke:#6083a8;stroke-width:1.5;stroke-linecap:round;stroke-linejoin:round;stroke-dasharray:1.947, 5.84" />
      </g>
      <g
         id="g230">
        <path
           inkscape:connector-curvature="0"
           d="M 142.454,85.425"
           id="path-61"
           style="fill:none;stroke:#6083a8;stroke-width:1.5;stroke-linecap:round;stroke-linejoin:round" />
      </g>
      <g
         id="g233">
        <path
           inkscape:connector-curvature="0"
           d="M 142.439,85.156"
           id="path-62"
           style="fill:none;stroke:#6083a8;stroke-width:1.5;stroke-linecap:round;stroke-linejoin:round" />
      </g>
    </g>
    <g
       transform="translate(0,447.667)"
       id="g238">
      <path
         inkscape:connector-curvature="0"
         d="m 148.754,86.527 c 0,0 -5.675,-0.158 -7.725,3.704 -2.05,3.863 -2.443,11.115 -4.651,14.031 -2.206,2.916 -8.512,10.404 -4.571,20.809 3.941,10.406 12.218,11.115 16.237,11.51 4.021,0.393 13.085,-0.711 17.184,-8.986 4.099,-8.277 3.39,-15.213 -1.261,-21.047 -4.651,-5.832 -4.493,-6.936 -5.676,-11.822 -1.182,-4.888 -3.311,-8.199 -9.537,-8.199"
         id="path-63"
         style="fill:#dce223" />
    </g>
    <g
       transform="translate(0,447.667)"
       id="g241">
      <path
         inkscape:connector-curvature="0"
         d="m 163.967,106.547 c -4.651,-5.832 -4.493,-6.936 -5.676,-11.822 -1.182,-4.887 -3.311,-8.198 -9.537,-8.198 0,0 -0.087,-0.002 -0.242,0.002 4.38,0.162 5.757,3.923 6.464,7.21 1.082,5.029 0.934,6.467 5.189,12.469 4.255,6.002 3.735,14.334 -0.229,21.502 -2.962,5.354 -8.132,8.035 -11.979,8.861 0.028,0.004 0.06,0.006 0.087,0.01 4.021,0.395 13.085,-0.711 17.184,-8.986 4.098,-8.278 3.389,-15.214 -1.261,-21.048"
         id="path-64"
         style="fill:#babf1d" />
    </g>
    <g
       transform="translate(0,447.667)"
       id="g252">
      <defs
         id="defs244">
        <rect
           height="27.868999"
           width="11.796"
           y="106.379"
           x="133.631"
           id="SVGID_11_" />
      </defs>
      <clipPath
         id="SVGID_12_">
        <use
           height="100%"
           width="100%"
           y="0"
           x="0"
           style="overflow:visible"
           id="use246"
           overflow="visible"
           xlink:href="#SVGID_11_" />
      </clipPath>
      <g
         id="g250"
         clip-path="url(#SVGID_12_)">
        <path
           inkscape:connector-curvature="0"
           d="m 137.013,123.719 c -2.49,-7.254 -0.8,-13.193 1.292,-17.34 -2.582,3.307 -6.777,9.656 -3.433,18.045 2.5,6.27 6.78,8.752 10.556,9.822 -3.163,-1.585 -6.38,-4.597 -8.415,-10.527"
           id="path-65"
           style="fill:#ffffff" />
      </g>
    </g>
    <g
       transform="translate(0,447.667)"
       id="g255">
      <path
         inkscape:connector-curvature="0"
         d="m 149.187,84.722 c 0,0 -0.161,-1.148 -4.571,-1.654 -4.809,-0.553 -4.02,-6.857 -4.02,-6.857 0,0 1.733,1.104 4.649,1.576 2.917,0.472 4.888,3.468 3.942,6.935"
         id="path-66"
         style="fill:#74b84b" />
    </g>
    <g
       transform="translate(0,447.667)"
       id="g258">
      <path
         inkscape:connector-curvature="0"
         d="m 156.059,77.625 c -5.693,1.568 -7.796,9.164 -7.715,9.332 0.172,0.138 0.423,0.013 0.423,0.013 2.37,-6.47 7.607,-7.296 7.607,-7.296 0.63,-1.419 -0.315,-2.049 -0.315,-2.049"
         id="path-67"
         style="fill:#42362b" />
    </g>
  </g>
  <g
     id="g4778"
     transform="translate(199.13301,-422.53163)">
    <g
       transform="translate(0,447.667)"
       id="g261">
      <path
         inkscape:connector-curvature="0"
         d="m 33.169,111.193 c 0,0 0.254,-1.811 7.207,-2.609 7.58,-0.869 6.338,-10.811 6.338,-10.811 0,0 -2.734,1.74 -7.332,2.486 -4.598,0.744 -7.704,5.467 -6.213,10.934"
         id="path-68"
         style="fill:#74b84b" />
    </g>
    <g
       transform="translate(0,447.667)"
       id="g264">
      <path
         inkscape:connector-curvature="0"
         d="m 24.252,103.371 c 0,0 10.281,2.17 10.624,14.393 0,0 -0.84,-8.688 -11.235,-12.686 0,0 0.04,-1.022 0.611,-1.707"
         id="path-69"
         style="fill:#5e4023" />
    </g>
    <g
       transform="translate(0,447.667)"
       id="g267">
      <path
         inkscape:connector-curvature="0"
         d="m 34.39,115.158 c 0,0 -8.567,-7.424 -18.85,-1.143 -10.281,6.285 -8.91,35.072 17.136,35.186 20.703,0.092 27.875,-15.193 24.333,-26.846 -3.541,-11.652 -15.536,-12.451 -22.619,-7.197"
         id="path-70"
         style="fill:#ff0000" />
    </g>
    <g
       transform="translate(0,447.667)"
       id="g270">
      <path
         inkscape:connector-curvature="0"
         d="m 57.009,122.355 c -2.532,-8.334 -9.39,-11.113 -15.681,-10.1 3.611,1.945 6.569,5.131 7.764,10.283 2.577,11.105 -4.121,23.568 -17.257,26.645 0.278,0.008 0.557,0.018 0.841,0.02 20.703,0.089 27.875,-15.196 24.333,-26.848"
         id="path-71"
         style="fill:#db0000" />
    </g>
    <g
       transform="translate(0,447.667)"
       id="g281">
      <defs
         id="defs273">
        <rect
           height="25.068001"
           width="9.6129999"
           y="113.529"
           x="12.782"
           id="SVGID_13_" />
      </defs>
      <clipPath
         id="SVGID_14_">
        <use
           height="100%"
           width="100%"
           y="0"
           x="0"
           style="overflow:visible"
           id="use275"
           overflow="visible"
           xlink:href="#SVGID_13_" />
      </clipPath>
      <g
         id="g279"
         clip-path="url(#SVGID_14_)">
        <path
           inkscape:connector-curvature="0"
           d="m 22.396,113.529 c 0,0 -15.581,2.871 -7.07,25.068 -0.001,0 -4.697,-17.449 7.07,-25.068"
           id="path-72"
           style="fill:#ffffff" />
      </g>
    </g>
  </g>
  <g
     id="g4367"
     transform="translate(-23.402194,-369.01051)">
    <g
       transform="translate(116.27425,372.97262)"
       id="g289">
      <g
         id="g284">
        <path
           inkscape:connector-curvature="0"
           d="M 143.948,42.894"
           id="path-73"
           style="fill:none;stroke:#6083a8;stroke-width:1.5;stroke-linecap:round;stroke-linejoin:round;stroke-dasharray:1.608, 4.824" />
      </g>
      <g
         id="g287">
        <path
           inkscape:connector-curvature="0"
           d="M 171.365,77.751"
           id="path-74"
           style="fill:none;stroke:#6083a8;stroke-width:1.5;stroke-linecap:round;stroke-linejoin:round" />
      </g>
    </g>
    <g
       transform="translate(116.27425,372.97262)"
       id="g292">
      <path
         inkscape:connector-curvature="0"
         d="m 175.684,46.737 c 0,0 3.622,-1.91 4.976,-4.502 1.354,-2.59 2.452,-2.027 2.452,-2.027 0,0 -1.379,-1.438 -2.84,-0.861 0,0 1.881,-0.783 2.638,-3.832 0.757,-3.049 2.275,-2.693 2.275,-2.693 0,0 -3.5,-2.631 -9.638,2.322 0,0 0.895,-1.281 0.157,-2.984 0,0 -9.333,5.51 -6.089,12.107 1.239,2.519 4.212,2.632 6.069,2.47"
         id="path-75"
         style="fill:#77a117" />
    </g>
    <g
       transform="translate(116.27425,372.97262)"
       id="g295">
      <path
         inkscape:connector-curvature="0"
         d="m 148.309,49.288 c 0,0 1.557,-2.818 4.078,-2.521 0,0 -3.263,-0.443 -5.709,-4.893 -2.447,-4.449 -4.672,-3.264 -4.672,-3.264 0,0 4.375,-5.561 16.017,-0.371 0,0 -1.928,-1.631 -1.483,-4.596 0,0 16.863,4.734 14.533,16.387 -0.89,4.447 -5.487,5.857 -8.453,6.377"
         id="path-76"
         style="fill:#91c41c" />
    </g>
    <g
       transform="translate(116.27425,372.97262)"
       id="g298">
      <path
         inkscape:connector-curvature="0"
         d="m 162.619,56.407 c 0,0 -6.45,-1.484 -9.639,-4.969"
         id="path-77"
         style="fill:#91c41c" />
    </g>
    <g
       transform="translate(116.27425,372.97262)"
       id="g301">
      <path
         inkscape:connector-curvature="0"
         d="m 186.947,75.525 c 0,3.584 -2.904,6.488 -6.487,6.488 -3.584,0 -6.488,-2.904 -6.488,-6.488 0,-3.582 2.904,-6.489 6.488,-6.489 3.583,0 6.487,2.907 6.487,6.489"
         id="path-78"
         style="fill:#8c3fc7" />
    </g>
    <g
       transform="translate(116.27425,372.97262)"
       id="g312">
      <defs
         id="defs304">
        <rect
           height="7.4260001"
           width="2.5239999"
           y="71.463997"
           x="175.017"
           id="SVGID_15_" />
      </defs>
      <clipPath
         id="SVGID_16_">
        <use
           height="100%"
           width="100%"
           y="0"
           x="0"
           style="overflow:visible"
           id="use306"
           overflow="visible"
           xlink:href="#SVGID_15_" />
      </clipPath>
      <g
         id="g310"
         clip-path="url(#SVGID_16_)">
        <path
           inkscape:connector-curvature="0"
           d="m 175.825,74.968 c 0,-1.367 0.493,-2.605 1.29,-3.504 -1.258,0.748 -2.099,2.078 -2.099,3.602 0,1.689 1.033,3.143 2.524,3.824 -1.041,-0.908 -1.715,-2.324 -1.715,-3.922"
           id="path-79"
           style="fill:#ffffff" />
      </g>
    </g>
    <g
       transform="translate(116.27425,372.97262)"
       id="g315">
      <path
         inkscape:connector-curvature="0"
         d="m 185.08,70.974 c 0.57,0.965 0.903,2.088 0.903,3.291 0,3.582 -2.904,6.488 -6.487,6.488 -1.81,0 -3.443,-0.742 -4.62,-1.936 1.128,1.91 3.203,3.195 5.584,3.195 3.583,0 6.487,-2.904 6.487,-6.488 0,-1.773 -0.713,-3.38 -1.867,-4.55"
         id="path-80"
         style="fill:#662e91" />
    </g>
    <g
       transform="translate(116.27425,372.97262)"
       id="g318">
      <path
         inkscape:connector-curvature="0"
         d="m 178.717,68.11 c 0,3.583 -2.904,6.489 -6.487,6.489 -3.584,0 -6.488,-2.906 -6.488,-6.489 0,-3.584 2.904,-6.488 6.488,-6.488 3.583,0 6.487,2.904 6.487,6.488"
         id="path-81"
         style="fill:#8c3fc7" />
    </g>
    <g
       transform="translate(116.27425,372.97262)"
       id="g329">
      <defs
         id="defs321">
        <rect
           height="7.4260001"
           width="2.5239999"
           y="64.050003"
           x="166.786"
           id="SVGID_17_" />
      </defs>
      <clipPath
         id="SVGID_18_">
        <use
           height="100%"
           width="100%"
           y="0"
           x="0"
           style="overflow:visible"
           id="use323"
           overflow="visible"
           xlink:href="#SVGID_17_" />
      </clipPath>
      <g
         id="g327"
         clip-path="url(#SVGID_18_)">
        <path
           inkscape:connector-curvature="0"
           d="m 167.595,67.554 c 0,-1.367 0.493,-2.607 1.29,-3.504 -1.258,0.746 -2.099,2.078 -2.099,3.602 0,1.688 1.033,3.143 2.524,3.825 -1.041,-0.909 -1.715,-2.328 -1.715,-3.923"
           id="path-82"
           style="fill:#ffffff" />
      </g>
    </g>
    <g
       transform="translate(116.27425,372.97262)"
       id="g332">
      <path
         inkscape:connector-curvature="0"
         d="m 176.85,63.558 c 0.57,0.967 0.903,2.088 0.903,3.291 0,3.584 -2.904,6.489 -6.488,6.489 -1.809,0 -3.443,-0.74 -4.619,-1.936 1.128,1.91 3.203,3.197 5.584,3.197 3.583,0 6.487,-2.906 6.487,-6.489 0,-1.775 -0.713,-3.381 -1.867,-4.552"
         id="path-83"
         style="fill:#662e91" />
    </g>
    <g
       transform="translate(116.27425,372.97262)"
       id="g335">
      <path
         inkscape:connector-curvature="0"
         d="m 190.21,65.589 c 0,3.584 -2.904,6.489 -6.488,6.489 -3.583,0 -6.487,-2.905 -6.487,-6.489 0,-3.584 2.904,-6.488 6.487,-6.488 3.584,0 6.488,2.904 6.488,6.488"
         id="path-84"
         style="fill:#8c3fc7" />
    </g>
    <g
       transform="translate(116.27425,372.97262)"
       id="g346">
      <defs
         id="defs338">
        <rect
           height="7.4260001"
           width="2.5239999"
           y="61.528"
           x="178.27901"
           id="SVGID_19_" />
      </defs>
      <clipPath
         id="SVGID_20_">
        <use
           height="100%"
           width="100%"
           y="0"
           x="0"
           style="overflow:visible"
           id="use340"
           overflow="visible"
           xlink:href="#SVGID_19_" />
      </clipPath>
      <g
         id="g344"
         clip-path="url(#SVGID_20_)">
        <path
           inkscape:connector-curvature="0"
           d="m 179.088,65.032 c 0,-1.367 0.493,-2.605 1.29,-3.504 -1.258,0.746 -2.099,2.078 -2.099,3.602 0,1.689 1.033,3.143 2.524,3.824 -1.041,-0.908 -1.715,-2.326 -1.715,-3.922"
           id="path-85"
           style="fill:#ffffff" />
      </g>
    </g>
    <g
       transform="translate(116.27425,372.97262)"
       id="g349">
      <path
         inkscape:connector-curvature="0"
         d="m 188.342,61.036 c 0.571,0.967 0.904,2.09 0.904,3.293 0,3.582 -2.904,6.489 -6.488,6.489 -1.809,0 -3.443,-0.742 -4.62,-1.938 1.129,1.913 3.204,3.198 5.584,3.198 3.584,0 6.488,-2.905 6.488,-6.489 0,-1.774 -0.713,-3.381 -1.868,-4.553"
         id="path-86"
         style="fill:#662e91" />
    </g>
    <g
       transform="translate(116.27425,372.97262)"
       id="g352">
      <path
         inkscape:connector-curvature="0"
         d="m 191.174,53.8 c 0,3.582 -2.904,6.488 -6.487,6.488 -3.584,0 -6.488,-2.906 -6.488,-6.488 0,-3.584 2.904,-6.488 6.488,-6.488 3.583,0 6.487,2.904 6.487,6.488"
         id="path-87"
         style="fill:#8c3fc7" />
    </g>
    <g
       transform="translate(116.27425,372.97262)"
       id="g363">
      <defs
         id="defs355">
        <rect
           height="7.428"
           width="2.5239999"
           y="49.737"
           x="179.243"
           id="SVGID_21_" />
      </defs>
      <clipPath
         id="SVGID_22_">
        <use
           height="100%"
           width="100%"
           y="0"
           x="0"
           style="overflow:visible"
           id="use357"
           overflow="visible"
           xlink:href="#SVGID_21_" />
      </clipPath>
      <g
         id="g361"
         clip-path="url(#SVGID_22_)">
        <path
           inkscape:connector-curvature="0"
           d="m 180.052,53.243 c 0,-1.369 0.493,-2.607 1.29,-3.506 -1.258,0.748 -2.099,2.08 -2.099,3.602 0,1.689 1.033,3.145 2.524,3.826 -1.041,-0.908 -1.715,-2.326 -1.715,-3.922"
           id="path-88"
           style="fill:#ffffff" />
      </g>
    </g>
    <g
       transform="translate(116.27425,372.97262)"
       id="g366">
      <path
         inkscape:connector-curvature="0"
         d="m 189.307,49.247 c 0.57,0.967 0.903,2.088 0.903,3.291 0,3.584 -2.904,6.488 -6.488,6.488 -1.809,0 -3.443,-0.742 -4.62,-1.936 1.129,1.91 3.204,3.197 5.585,3.197 3.583,0 6.487,-2.906 6.487,-6.488 0,-1.775 -0.713,-3.38 -1.867,-4.552"
         id="path-89"
         style="fill:#662e91" />
    </g>
    <g
       transform="translate(116.27425,372.97262)"
       id="g369">
      <path
         inkscape:connector-curvature="0"
         d="m 181.387,59.36 c 0,3.584 -2.905,6.488 -6.488,6.488 -3.583,0 -6.488,-2.904 -6.488,-6.488 0,-3.584 2.905,-6.488 6.488,-6.488 3.583,0 6.488,2.904 6.488,6.488"
         id="path-90"
         style="fill:#8c3fc7" />
    </g>
    <g
       transform="translate(116.27425,372.97262)"
       id="g380">
      <defs
         id="defs372">
        <rect
           height="7.4260001"
           width="2.5250001"
           y="55.299999"
           x="169.455"
           id="SVGID_23_" />
      </defs>
      <clipPath
         id="SVGID_24_">
        <use
           height="100%"
           width="100%"
           y="0"
           x="0"
           style="overflow:visible"
           id="use374"
           overflow="visible"
           xlink:href="#SVGID_23_" />
      </clipPath>
      <g
         id="g378"
         clip-path="url(#SVGID_24_)">
        <path
           inkscape:connector-curvature="0"
           d="m 170.265,58.804 c 0,-1.367 0.492,-2.605 1.289,-3.504 -1.258,0.746 -2.098,2.078 -2.098,3.602 0,1.689 1.032,3.143 2.524,3.824 -1.042,-0.909 -1.715,-2.325 -1.715,-3.922"
           id="path-91"
           style="fill:#ffffff" />
      </g>
    </g>
    <g
       transform="translate(116.27425,372.97262)"
       id="g383">
      <path
         inkscape:connector-curvature="0"
         d="m 179.519,54.808 c 0.57,0.967 0.904,2.09 0.904,3.293 0,3.582 -2.905,6.488 -6.488,6.488 -1.809,0 -3.443,-0.742 -4.62,-1.938 1.129,1.912 3.204,3.197 5.584,3.197 3.583,0 6.488,-2.904 6.488,-6.488 0,-1.773 -0.714,-3.381 -1.868,-4.552"
         id="path-92"
         style="fill:#662e91" />
    </g>
    <g
       transform="translate(116.27425,372.97262)"
       id="g386">
      <path
         inkscape:connector-curvature="0"
         d="m 169.745,61.214 c 0,3.584 -2.904,6.488 -6.488,6.488 -3.583,0 -6.488,-2.904 -6.488,-6.488 0,-3.582 2.905,-6.488 6.488,-6.488 3.584,0 6.488,2.906 6.488,6.488"
         id="path-93"
         style="fill:#8c3fc7" />
    </g>
    <g
       transform="translate(116.27425,372.97262)"
       id="g397">
      <defs
         id="defs389">
        <rect
           height="7.4260001"
           width="2.5239999"
           y="57.153"
           x="157.814"
           id="SVGID_25_" />
      </defs>
      <clipPath
         id="SVGID_26_">
        <use
           height="100%"
           width="100%"
           y="0"
           x="0"
           style="overflow:visible"
           id="use391"
           overflow="visible"
           xlink:href="#SVGID_25_" />
      </clipPath>
      <g
         id="g395"
         clip-path="url(#SVGID_26_)">
        <path
           inkscape:connector-curvature="0"
           d="m 158.623,60.657 c 0,-1.367 0.493,-2.605 1.29,-3.504 -1.258,0.748 -2.099,2.078 -2.099,3.602 0,1.689 1.032,3.143 2.524,3.824 -1.042,-0.908 -1.715,-2.324 -1.715,-3.922"
           id="path-94"
           style="fill:#ffffff" />
      </g>
    </g>
    <g
       transform="translate(116.27425,372.97262)"
       id="g400">
      <path
         inkscape:connector-curvature="0"
         d="m 167.877,56.661 c 0.571,0.967 0.904,2.09 0.904,3.293 0,3.582 -2.905,6.488 -6.488,6.488 -1.809,0 -3.443,-0.742 -4.62,-1.938 1.129,1.912 3.204,3.197 5.584,3.197 3.584,0 6.488,-2.904 6.488,-6.488 0,-1.773 -0.714,-3.38 -1.868,-4.552"
         id="path-95"
         style="fill:#662e91" />
    </g>
    <g
       transform="translate(116.27425,372.97262)"
       id="g403">
      <path
         inkscape:connector-curvature="0"
         d="m 172.341,52.095 c 0,3.582 -2.905,6.486 -6.488,6.486 -3.584,0 -6.488,-2.904 -6.488,-6.486 0,-3.584 2.904,-6.488 6.488,-6.488 3.583,-10e-4 6.488,2.904 6.488,6.488"
         id="path-96"
         style="fill:#8c3fc7" />
    </g>
    <g
       transform="translate(116.27425,372.97262)"
       id="g414">
      <defs
         id="defs406">
        <rect
           height="7.428"
           width="2.5239999"
           y="48.032001"
           x="160.409"
           id="SVGID_27_" />
      </defs>
      <clipPath
         id="SVGID_28_">
        <use
           height="100%"
           width="100%"
           y="0"
           x="0"
           style="overflow:visible"
           id="use408"
           overflow="visible"
           xlink:href="#SVGID_27_" />
      </clipPath>
      <g
         id="g412"
         clip-path="url(#SVGID_28_)">
        <path
           inkscape:connector-curvature="0"
           d="m 161.218,51.538 c 0,-1.369 0.493,-2.607 1.29,-3.506 -1.258,0.748 -2.099,2.08 -2.099,3.602 0,1.689 1.033,3.145 2.524,3.826 -1.041,-0.91 -1.715,-2.326 -1.715,-3.922"
           id="path-97"
           style="fill:#ffffff" />
      </g>
    </g>
    <g
       transform="translate(116.27425,372.97262)"
       id="g417">
      <path
         inkscape:connector-curvature="0"
         d="m 170.473,47.542 c 0.57,0.965 0.903,2.088 0.903,3.291 0,3.584 -2.904,6.488 -6.487,6.488 -1.81,0 -3.443,-0.742 -4.62,-1.936 1.129,1.91 3.203,3.195 5.584,3.195 3.583,0 6.488,-2.904 6.488,-6.486 0,-1.775 -0.714,-3.38 -1.868,-4.552"
         id="path-98"
         style="fill:#662e91" />
    </g>
    <g
       transform="translate(116.27425,372.97262)"
       id="g420">
      <path
         inkscape:connector-curvature="0"
         d="m 182.351,47.868 c 0,3.582 -2.904,6.486 -6.488,6.486 -3.583,0 -6.488,-2.904 -6.488,-6.486 0,-3.584 2.905,-6.488 6.488,-6.488 3.583,0 6.488,2.904 6.488,6.488"
         id="path-99"
         style="fill:#8c3fc7" />
    </g>
    <g
       transform="translate(116.27425,372.97262)"
       id="g431">
      <defs
         id="defs423">
        <rect
           height="7.428"
           width="2.5250001"
           y="43.806"
           x="170.41901"
           id="SVGID_29_" />
      </defs>
      <clipPath
         id="SVGID_30_">
        <use
           height="100%"
           width="100%"
           y="0"
           x="0"
           style="overflow:visible"
           id="use425"
           overflow="visible"
           xlink:href="#SVGID_29_" />
      </clipPath>
      <g
         id="g429"
         clip-path="url(#SVGID_30_)">
        <path
           inkscape:connector-curvature="0"
           d="m 171.229,47.312 c 0,-1.369 0.492,-2.607 1.289,-3.506 -1.258,0.748 -2.098,2.08 -2.098,3.602 0,1.689 1.032,3.145 2.524,3.826 -1.043,-0.911 -1.715,-2.327 -1.715,-3.922"
           id="path-100"
           style="fill:#ffffff" />
      </g>
    </g>
    <g
       transform="translate(116.27425,372.97262)"
       id="g434">
      <path
         inkscape:connector-curvature="0"
         d="m 180.482,43.315 c 0.57,0.965 0.904,2.088 0.904,3.291 0,3.584 -2.905,6.488 -6.488,6.488 -1.809,0 -3.443,-0.742 -4.62,-1.936 1.129,1.91 3.204,3.195 5.584,3.195 3.583,0 6.488,-2.904 6.488,-6.486 0.001,-1.774 -0.713,-3.38 -1.868,-4.552"
         id="path-101"
         style="fill:#662e91" />
    </g>
  </g>
  <g
     id="g4682"
     transform="translate(117.79498,-479.926)">
    <g
       transform="translate(0,447.667)"
       id="g89">
      <path
         inkscape:connector-curvature="0"
         d="m 93.753,59.715 c 0,0 4.718,3.463 3.509,11.92 -1.209,8.457 -6.624,15.361 -15.302,18.726 -8.679,3.363 -19.533,4.33 -27.118,-0.654 -7.585,-4.984 -8.342,-10.198 -7.546,-11.582 0.631,-1.097 1.051,-1.527 3.955,-1.569 2.904,-0.041 13.755,4.286 19.925,3.351 12.734,-1.931 15.861,-14.881 18.152,-17.283 2.292,-2.402 3.203,-3.162 4.425,-2.909"
         id="path-22"
         style="fill:#f5d329" />
    </g>
    <g
       transform="translate(0,447.667)"
       id="g92">
      <path
         inkscape:connector-curvature="0"
         d="m 97.262,71.635 c 1.165,-8.145 -3.167,-11.657 -3.488,-11.904 0.488,3.839 0.717,10.365 -4.302,18.382 -6.224,9.941 -29.275,16.103 -41.873,0.736 l -0.541,0.774 c 0.145,2.254 1.93,6.235 7.784,10.083 7.584,4.984 18.438,4.018 27.118,0.654 8.679,-3.363 14.093,-10.268 15.302,-18.725"
         id="path-23"
         style="fill:#ebc61a" />
    </g>
    <g
       transform="translate(0,447.667)"
       id="g95">
      <path
         inkscape:connector-curvature="0"
         d="m 71.219,76.178 c -5.872,2.113 -17.064,0.336 -19.968,0.377 -1.809,0.026 -2.654,0.203 -3.186,0.598 l 0.337,0.6 C 79.387,93.468 92.757,62.897 93.711,59.709 90.395,58.013 85.447,71.059 71.219,76.178"
         id="path-24"
         style="fill:#ffe24f" />
    </g>
    <g
       transform="translate(0,447.667)"
       id="g106">
      <defs
         id="defs98">
        <polyline
           points="54.801,79.141 86.441,79.141 86.441,67.608   "
           id="SVGID_5_" />
      </defs>
      <clipPath
         id="SVGID_6_">
        <use
           height="100%"
           width="100%"
           y="0"
           x="0"
           style="overflow:visible"
           id="use100"
           overflow="visible"
           xlink:href="#SVGID_5_" />
      </clipPath>
      <g
         id="g104"
         clip-path="url(#SVGID_6_)">
        <path
           inkscape:connector-curvature="0"
           d="m 54.801,78.095 c 0,0 21.488,3.125 31.64,-10.487 0,0 -9.706,15.652 -31.64,10.487"
           id="path-25"
           style="fill:#fff1ba" />
      </g>
    </g>
    <g
       transform="translate(0,447.667)"
       id="g109">
      <path
         inkscape:connector-curvature="0"
         d="m 86.809,78.047 c -0.306,0.555 -0.902,0.813 -1.332,0.576 -0.43,-0.238 -0.529,-0.88 -0.223,-1.434 0.306,-0.555 0.902,-0.813 1.332,-0.575 0.43,0.238 0.528,0.88 0.223,1.433"
         id="path-26"
         style="fill:#8f7200" />
    </g>
    <g
       transform="translate(0,447.667)"
       id="g112">
      <path
         inkscape:connector-curvature="0"
         d="m 83.824,78.48 c -0.14,0.254 -0.414,0.372 -0.61,0.264 -0.197,-0.109 -0.243,-0.403 -0.102,-0.657 0.14,-0.254 0.413,-0.372 0.61,-0.264 0.196,0.109 0.242,0.403 0.102,0.657"
         id="path-27"
         style="fill:#8f7200" />
    </g>
    <g
       transform="translate(0,447.667)"
       id="g115">
      <path
         inkscape:connector-curvature="0"
         d="m 66.292,85.863 c -0.14,0.254 -0.414,0.372 -0.61,0.264 -0.196,-0.108 -0.243,-0.403 -0.102,-0.657 0.141,-0.254 0.413,-0.372 0.61,-0.263 0.197,0.108 0.243,0.402 0.102,0.656"
         id="path-28"
         style="fill:#8f7200" />
    </g>
    <g
       transform="translate(0,447.667)"
       id="g118">
      <path
         inkscape:connector-curvature="0"
         d="m 64.557,85.814 c -0.105,0.19 -0.31,0.279 -0.458,0.197 -0.147,-0.081 -0.182,-0.302 -0.077,-0.492 0.105,-0.19 0.31,-0.279 0.458,-0.198 0.148,0.082 0.183,0.303 0.077,0.493"
         id="path-29"
         style="fill:#8f7200" />
    </g>
    <g
       transform="translate(0,447.667)"
       id="g121">
      <path
         inkscape:connector-curvature="0"
         d="m 64.821,84.234 c -0.105,0.19 -0.31,0.278 -0.458,0.197 -0.147,-0.082 -0.182,-0.302 -0.077,-0.493 0.105,-0.19 0.31,-0.279 0.458,-0.197 0.148,0.082 0.182,0.301 0.077,0.493"
         id="path-30"
         style="fill:#8f7200" />
    </g>
    <g
       transform="translate(0,447.667)"
       id="g124">
      <path
         inkscape:connector-curvature="0"
         d="m 81.931,83.215 c -0.167,0.302 -0.491,0.441 -0.725,0.313 -0.234,-0.128 -0.288,-0.479 -0.121,-0.78 0.166,-0.302 0.491,-0.441 0.724,-0.313 0.234,0.129 0.288,0.478 0.122,0.78"
         id="path-31"
         style="fill:#8f7200" />
    </g>
    <g
       transform="translate(0,447.667)"
       id="g127">
      <path
         inkscape:connector-curvature="0"
         d="m 93.491,59.73 c 0,0 5.592,1.727 7.22,10.113 1.628,8.387 -1.226,16.683 -8.324,22.704 -7.099,6.021 -17.037,10.49 -25.836,8.266 -8.798,-2.225 -11.222,-6.902 -10.923,-8.472 0.236,-1.242 0.492,-1.786 3.223,-2.777 2.73,-0.99 14.4,-0.457 19.923,-3.362 11.399,-5.995 10.111,-19.255 11.489,-22.275 1.378,-3.019 1.99,-4.036 3.228,-4.197"
         id="path-32"
         style="fill:#f5d329" />
    </g>
    <g
       transform="translate(0,447.667)"
       id="g130">
      <path
         inkscape:connector-curvature="0"
         d="m 100.711,69.843 c -1.568,-8.077 -6.812,-9.976 -7.196,-10.105 1.719,3.468 4.074,9.559 1.958,18.776 -2.624,11.432 -22.385,24.805 -39.321,14.413 l -0.258,0.908 c 0.875,2.083 3.866,5.26 10.658,6.978 8.799,2.225 18.737,-2.244 25.835,-8.266 7.098,-6.022 9.953,-14.317 8.324,-22.704"
         id="path-33"
         style="fill:#ebc61a" />
    </g>
    <g
       transform="translate(0,447.667)"
       id="g133">
      <path
         inkscape:connector-curvature="0"
         d="m 77.594,82.667 c -4.855,3.92 -16.013,5.906 -18.743,6.897 -1.701,0.617 -2.44,1.062 -2.814,1.608 l 0.514,0.456 C 90.975,96.325 93.592,63.061 93.449,59.737 89.76,59.222 89.359,73.169 77.594,82.667"
         id="path-34"
         style="fill:#ffe24f" />
    </g>
    <g
       transform="translate(0,447.667)"
       id="g136">
      <path
         inkscape:connector-curvature="0"
         d="m 57.495,92.519 c -0.156,0.854 -0.767,1.458 -1.363,1.35 -0.597,-0.108 -0.955,-0.89 -0.799,-1.744 0.156,-0.854 0.766,-1.457 1.363,-1.349 0.596,0.109 0.954,0.89 0.799,1.743"
         id="path-35"
         style="fill:#8f7200" />
    </g>
    <g
       transform="translate(0,447.667)"
       id="g139">
      <path
         inkscape:connector-curvature="0"
         d="m 48.146,77.723 c -0.156,0.854 -0.767,1.458 -1.363,1.35 -0.597,-0.108 -0.955,-0.89 -0.799,-1.744 0.156,-0.854 0.766,-1.457 1.363,-1.349 0.597,0.109 0.955,0.89 0.799,1.743"
         id="path-36"
         style="fill:#8f7200" />
    </g>
    <g
       transform="translate(0,447.667)"
       id="g150">
      <defs
         id="defs142">
        <polyline
           points="62.453,89.828 88.584,89.828 88.584,70.841   "
           id="SVGID_7_" />
      </defs>
      <clipPath
         id="SVGID_8_">
        <use
           height="100%"
           width="100%"
           y="0"
           x="0"
           style="overflow:visible"
           id="use144"
           overflow="visible"
           xlink:href="#SVGID_7_" />
      </clipPath>
      <g
         id="g148"
         clip-path="url(#SVGID_8_)">
        <path
           inkscape:connector-curvature="0"
           d="m 62.453,89.828 c 0,0 19.575,-1.849 26.132,-18.986 -10e-4,-0.001 -3.752,17.455 -26.132,18.986"
           id="path-37"
           style="fill:#fff1ba" />
      </g>
    </g>
    <g
       transform="translate(0,447.667)"
       id="g153">
      <path
         inkscape:connector-curvature="0"
         d="m 92.935,79.326 c -0.107,0.625 -0.586,1.063 -1.07,0.979 -0.483,-0.083 -0.788,-0.656 -0.68,-1.28 0.107,-0.625 0.586,-1.063 1.069,-0.979 0.484,0.082 0.788,0.657 0.681,1.28"
         id="path-38"
         style="fill:#8f7200" />
    </g>
    <g
       transform="translate(0,447.667)"
       id="g156">
      <path
         inkscape:connector-curvature="0"
         d="m 90.256,80.712 c -0.049,0.285 -0.269,0.486 -0.49,0.448 -0.221,-0.038 -0.361,-0.301 -0.312,-0.587 0.05,-0.286 0.269,-0.487 0.49,-0.449 0.222,0.039 0.361,0.302 0.312,0.588"
         id="path-39"
         style="fill:#8f7200" />
    </g>
    <g
       transform="translate(0,447.667)"
       id="g159">
      <path
         inkscape:connector-curvature="0"
         d="m 69.695,94.625 c -0.049,0.286 -0.269,0.487 -0.49,0.448 -0.222,-0.038 -0.361,-0.301 -0.312,-0.587 0.049,-0.286 0.269,-0.486 0.49,-0.448 0.221,0.038 0.362,0.3 0.312,0.587"
         id="path-40"
         style="fill:#8f7200" />
    </g>
    <g
       transform="translate(0,447.667)"
       id="g162">
      <path
         inkscape:connector-curvature="0"
         d="m 74.502,91.595 c -0.049,0.286 -0.269,0.487 -0.49,0.449 -0.222,-0.038 -0.361,-0.301 -0.312,-0.587 0.049,-0.286 0.269,-0.487 0.49,-0.449 0.222,0.038 0.361,0.301 0.312,0.587"
         id="path-41"
         style="fill:#8f7200" />
    </g>
    <g
       transform="translate(0,447.667)"
       id="g165">
      <path
         inkscape:connector-curvature="0"
         d="m 69.134,92.763 c -0.037,0.215 -0.202,0.365 -0.368,0.337 -0.166,-0.029 -0.271,-0.226 -0.234,-0.44 0.037,-0.215 0.202,-0.365 0.368,-0.336 0.166,0.028 0.271,0.224 0.234,0.439"
         id="path-42"
         style="fill:#8f7200" />
    </g>
    <g
       transform="translate(0,447.667)"
       id="g168">
      <path
         inkscape:connector-curvature="0"
         d="m 70.912,92.17 c -0.037,0.215 -0.202,0.366 -0.368,0.337 -0.166,-0.029 -0.271,-0.226 -0.234,-0.44 0.037,-0.214 0.202,-0.365 0.368,-0.336 0.166,0.028 0.271,0.225 0.234,0.439"
         id="path-43"
         style="fill:#8f7200" />
    </g>
    <g
       transform="translate(0,447.667)"
       id="g171">
      <path
         inkscape:connector-curvature="0"
         d="m 90.019,85.806 c -0.059,0.34 -0.319,0.578 -0.583,0.533 -0.263,-0.046 -0.428,-0.358 -0.37,-0.698 0.058,-0.339 0.319,-0.578 0.582,-0.532 0.264,0.045 0.43,0.357 0.371,0.697"
         id="path-44"
         style="fill:#8f7200" />
    </g>
    <g
       transform="translate(0,447.667)"
       id="g174">
      <path
         inkscape:connector-curvature="0"
         d="m 93.379,59.702 c 0,0 5.847,0.254 9.547,7.955 3.699,7.701 3.04,16.45 -2.301,24.073 -5.341,7.622 -13.824,14.464 -22.899,14.54 -9.075,0.077 -12.604,-3.834 -12.713,-5.428 -0.086,-1.262 0.023,-1.854 2.414,-3.504 2.39,-1.649 13.814,-4.09 18.421,-8.299 9.509,-8.688 4.903,-21.189 5.472,-24.459 0.567,-3.27 0.903,-4.409 2.059,-4.878"
         id="path-45"
         style="fill:#f5d329" />
    </g>
    <g
       transform="translate(0,447.667)"
       id="g177">
      <path
         inkscape:connector-curvature="0"
         d="m 102.926,67.656 c -3.563,-7.417 -9.117,-7.926 -9.521,-7.953 2.542,2.919 7.724,7.833 7.301,17.282 -0.605,13.499 -16.405,31.236 -35.039,24.29 l -0.02,0.944 c 1.374,1.793 5.072,4.108 12.077,4.05 9.075,-0.076 17.558,-6.917 22.899,-14.541 5.343,-7.622 6.002,-16.372 2.303,-24.072"
         id="path-46"
         style="fill:#ebc61a" />
    </g>
    <g
       transform="translate(0,447.667)"
       id="g180">
      <path
         inkscape:connector-curvature="0"
         d="m 83.811,85.917 c -3.704,5.021 -13.994,9.771 -16.384,11.42 -1.489,1.028 -2.092,1.645 -2.315,2.27 l 0.613,0.311 C 100.215,95.742 94.32,62.899 93.34,59.72 89.641,60.156 92.786,73.75 83.811,85.917"
         id="path-47"
         style="fill:#ffe24f" />
    </g>
    <g
       transform="translate(0,447.667)"
       id="g183">
      <path
         inkscape:connector-curvature="0"
         d="m 66.862,100.541 c 0.066,0.865 -0.372,1.604 -0.977,1.65 -0.605,0.046 -1.149,-0.619 -1.214,-1.484 -0.065,-0.865 0.372,-1.604 0.977,-1.65 0.605,-0.047 1.149,0.618 1.214,1.484"
         id="path-48"
         style="fill:#8f7200" />
    </g>
    <g
       transform="translate(0,447.667)"
       id="g194">
      <defs
         id="defs186">
        <rect
           height="28.247"
           width="18.624001"
           y="67.830002"
           x="73.802002"
           id="SVGID_9_" />
      </defs>
      <clipPath
         id="SVGID_10_">
        <use
           height="100%"
           width="100%"
           y="0"
           x="0"
           style="overflow:visible"
           id="use188"
           overflow="visible"
           xlink:href="#SVGID_9_" />
      </clipPath>
      <g
         id="g192"
         clip-path="url(#SVGID_10_)">
        <path
           inkscape:connector-curvature="0"
           d="m 73.802,96.077 c 0,0 17.79,-8.672 18.618,-28.247 0,0 0.83,20.531 -18.618,28.247"
           id="path-49"
           style="fill:#fff1ba" />
      </g>
    </g>
    <g
       transform="translate(0,447.667)"
       id="g197">
      <path
         inkscape:connector-curvature="0"
         d="m 97.805,78.799 c 0.054,0.631 -0.298,1.177 -0.787,1.219 -0.489,0.042 -0.929,-0.436 -0.983,-1.066 -0.054,-0.631 0.298,-1.177 0.787,-1.219 0.489,-0.042 0.929,0.435 0.983,1.066"
         id="path-50"
         style="fill:#8f7200" />
    </g>
    <g
       transform="translate(0,447.667)"
       id="g200">
      <path
         inkscape:connector-curvature="0"
         d="m 95.565,80.819 c 0.024,0.289 -0.137,0.539 -0.361,0.558 -0.224,0.02 -0.425,-0.199 -0.45,-0.488 -0.025,-0.289 0.137,-0.539 0.36,-0.559 0.224,-0.02 0.426,0.199 0.451,0.489"
         id="path-51"
         style="fill:#8f7200" />
    </g>
    <g
       transform="translate(0,447.667)"
       id="g203">
      <path
         inkscape:connector-curvature="0"
         d="m 79.119,97.74 c 0.025,0.289 -0.137,0.539 -0.36,0.559 -0.224,0.019 -0.426,-0.2 -0.45,-0.489 -0.025,-0.289 0.136,-0.539 0.36,-0.559 0.223,-0.019 0.425,0.2 0.45,0.489"
         id="path-52"
         style="fill:#8f7200" />
    </g>
    <g
       transform="translate(0,447.667)"
       id="g206">
      <path
         inkscape:connector-curvature="0"
         d="m 80.45,97.997 c 0.018,0.217 -0.103,0.405 -0.271,0.419 -0.168,0.015 -0.319,-0.149 -0.338,-0.366 -0.018,-0.218 0.103,-0.404 0.271,-0.419 0.168,-0.015 0.319,0.149 0.338,0.366"
         id="path-53"
         style="fill:#8f7200" />
    </g>
    <g
       transform="translate(0,447.667)"
       id="g209">
      <path
         inkscape:connector-curvature="0"
         d="m 77.566,99.877 c 0.019,0.217 -0.103,0.405 -0.27,0.419 -0.168,0.015 -0.319,-0.149 -0.338,-0.366 -0.019,-0.218 0.103,-0.405 0.27,-0.419 0.168,-0.014 0.32,0.15 0.338,0.366"
         id="path-54"
         style="fill:#8f7200" />
    </g>
    <g
       transform="translate(0,447.667)"
       id="g212">
      <path
         inkscape:connector-curvature="0"
         d="m 96.625,85.806 c 0.029,0.344 -0.162,0.641 -0.428,0.664 -0.266,0.022 -0.505,-0.237 -0.535,-0.581 -0.029,-0.344 0.163,-0.641 0.428,-0.663 0.267,-0.023 0.506,0.237 0.535,0.58"
         id="path-55"
         style="fill:#8f7200" />
    </g>
    <g
       transform="translate(0,447.667)"
       id="g215">
      <path
         inkscape:connector-curvature="0"
         d="m 90.846,53.492 c 0,0 1.98,2.738 1.563,6.24 0,0 0.468,0.545 1.038,0.042 0.699,-2.98 0.596,-5.84 0.342,-7.515 0,10e-4 -1.686,0.082 -2.943,1.233"
         id="path-56"
         style="fill:#8f7200" />
    </g>
    <g
       transform="translate(0,447.667)"
       id="g442">
      <g
         id="g437">
        <path
           inkscape:connector-curvature="0"
           d="M 64.841,53.279"
           id="path-102"
           style="fill:none;stroke:#6083a8;stroke-width:1.5;stroke-linecap:round;stroke-linejoin:round;stroke-dasharray:2.005, 6.014" />
      </g>
      <g
         id="g440">
        <path
           inkscape:connector-curvature="0"
           d="M 68.273,53.477"
           id="path-103"
           style="fill:none;stroke:#6083a8;stroke-width:1.5;stroke-linecap:round;stroke-linejoin:round;stroke-dasharray:1.96, 5.881" />
      </g>
    </g>
  </g>
  <g
     id="g4742"
     transform="translate(-20.937406,-431.68656)">
    <g
       transform="translate(0,447.667)"
       id="g445">
      <path
         inkscape:connector-curvature="0"
         d="m 68.712,10.557 c 0,0 -2.194,-1.461 -9.71,5.261 -8.194,7.329 -17.708,-3.528 -17.708,-3.528 0,0 4.491,-1.277 9.695,-5.514 5.206,-4.236 13.264,-3.06 17.723,3.781"
         id="path-104"
         style="fill:#59bf1d" />
    </g>
    <g
       transform="translate(0,447.667)"
       id="g448">
      <path
         inkscape:connector-curvature="0"
         d="m 68.637,11.862 c 0,0 1.252,-0.833 5.541,3.002 4.676,4.182 10.105,-2.013 10.105,-2.013 0,0 -2.563,-0.729 -5.533,-3.146 -2.97,-2.417 -7.569,-1.747 -10.113,2.157"
         id="path-105"
         style="fill:#8cd42f" />
    </g>
    <g
       transform="translate(0,447.667)"
       id="g451">
      <path
         inkscape:connector-curvature="0"
         d="m 52.058,37.395 c -0.031,0 -0.063,-0.001 -0.094,-0.004 C 51.38,37.339 50.948,36.824 51,36.24 51.056,35.602 52.554,20.5 67.905,9.665 c 0.317,-0.223 0.729,-0.257 1.077,-0.087 0.348,0.169 0.576,0.515 0.596,0.902 0.007,0.147 0.811,14.774 7.813,21.217 0.432,0.396 0.459,1.068 0.063,1.5 -0.397,0.432 -1.068,0.461 -1.5,0.063 C 69.84,27.635 68.091,16.913 67.62,12.518 54.474,22.7 53.129,36.287 53.117,36.428 c -0.051,0.551 -0.514,0.967 -1.059,0.967"
         id="path-106"
         style="fill:#734512" />
    </g>
    <g
       transform="translate(0,447.667)"
       id="g454">
      <path
         inkscape:connector-curvature="0"
         d="m 75.611,31.142 c 0,0 -5.23,-3.018 -9.647,0.636 -4.417,3.654 -4.056,19.443 8.615,19.735 12.756,0.293 14.666,-9.666 12.049,-17.379 -2.618,-7.715 -9.556,-4.025 -11.017,-2.992"
         id="path-107"
         style="fill:#ff004c" />
    </g>
    <g
       transform="translate(0,447.667)"
       id="g457">
      <path
         inkscape:connector-curvature="0"
         d="m 86.627,34.133 c -0.737,-2.174 -1.819,-3.442 -3.024,-4.12 0.127,0.3 0.249,0.612 0.361,0.952 2.719,8.254 0.709,18.919 -12.605,18.625 -1.506,-0.033 -2.837,-0.291 -4.021,-0.711 1.74,1.543 4.114,2.561 7.24,2.633 12.756,0.294 14.667,-9.665 12.049,-17.379"
         id="path-108"
         style="fill:#cf003e" />
    </g>
    <g
       transform="translate(0,447.667)"
       id="g468">
      <defs
         id="defs460">
        <rect
           height="9.368"
           width="5.4439998"
           y="32.473999"
           x="65.309998"
           id="SVGID_31_" />
      </defs>
      <clipPath
         id="SVGID_32_">
        <use
           height="100%"
           width="100%"
           y="0"
           x="0"
           style="overflow:visible"
           id="use462"
           overflow="visible"
           xlink:href="#SVGID_31_" />
      </clipPath>
      <g
         id="g466"
         clip-path="url(#SVGID_32_)">
        <path
           inkscape:connector-curvature="0"
           d="m 70.754,32.478 c 0,0 -7.549,-0.452 -4.869,9.364 10e-4,0 -0.184,-6.844 4.869,-9.364"
           id="path-109"
           style="fill:#ffffff" />
      </g>
    </g>
    <g
       transform="translate(0,447.667)"
       id="g471">
      <path
         inkscape:connector-curvature="0"
         d="m 52.673,34.116 c 0,0 -5.401,-2.701 -9.592,1.21 C 38.89,39.238 40.194,54.977 52.86,54.511 65.61,54.042 66.923,43.987 63.849,36.444 60.776,28.9 54.07,32.998 52.673,34.116"
         id="path-110"
         style="fill:#ff004c" />
    </g>
    <g
       transform="translate(0,447.667)"
       id="g474">
      <path
         inkscape:connector-curvature="0"
         d="m 63.849,36.444 c -0.867,-2.126 -2.021,-3.328 -3.265,-3.932 0.144,0.292 0.285,0.596 0.417,0.928 3.207,8.077 1.837,18.843 -11.47,19.345 -1.506,0.057 -2.85,-0.121 -4.057,-0.47 1.83,1.438 4.26,2.311 7.385,2.196 12.751,-0.468 14.063,-10.523 10.99,-18.067"
         id="path-111"
         style="fill:#cf003e" />
    </g>
    <g
       transform="translate(0,447.667)"
       id="g485">
      <defs
         id="defs477">
        <rect
           height="9.6379995"
           width="5.1170001"
           y="35.740002"
           x="42.787998"
           id="SVGID_33_" />
      </defs>
      <clipPath
         id="SVGID_34_">
        <use
           height="100%"
           width="100%"
           y="0"
           x="0"
           style="overflow:visible"
           id="use479"
           overflow="visible"
           xlink:href="#SVGID_33_" />
      </clipPath>
      <g
         id="g483"
         clip-path="url(#SVGID_34_)">
        <path
           inkscape:connector-curvature="0"
           d="m 47.905,35.74 c 0,0 -7.563,0 -4.3,9.638 0,0 -0.593,-6.821 4.3,-9.638"
           id="path-112"
           style="fill:#ffffff" />
      </g>
    </g>
  </g>
</svg>
