<!--?xml version="1.0" encoding="utf-8"?-->
<!-- Generator: Adobe Illustrator 15.0.0, SVG Export Plug-In . SVG Version: 6.00 Build 0)  -->
<svg xmlns="http://www.w3.org/2000/svg" xmlns:xlink="http://www.w3.org/1999/xlink" width="200px" height="152.333px" viewBox="0 0 200 152.333">
<g>
	<g>
		<defs>
			<rect id="SVGID_1_" x="6.105" y="35.789" width="35.071" height="40.669"/>
		</defs>
		<clipPath id="SVGID_2_">
			<use xlink:href="#SVGID_1_" overflow="visible"/>
		</clipPath>
	</g>
</g>
<g>
	<path style="position: relative;" id="path-0" fill="#74B84B" d="M23.378,45.167c0,0-0.612-0.951-5.467,0.606c-5.293,1.698-6.885-4.285-6.885-4.285s2.257,0.194,5.521-0.712   S23.044,41.643,23.378,45.167"/>
</g>
<g>
	<path style="position: relative;" id="path-1" fill="#74B84B" d="M23.646,44.643c0,0,0.707-0.52,3.309,1.6c2.837,2.312,5.834-1.445,5.834-1.445s-1.513-0.355-3.309-1.685   C27.686,41.785,25.024,42.299,23.646,44.643"/>
</g>
<g>
	<path style="position: relative;" id="path-2" fill="#764C24" d="M25.135,40.427c0,0-3.164,3.173-1.593,8.52c0,0-0.833-4.956,2.424-8.032   C25.965,40.914,25.429,40.552,25.135,40.427"/>
</g>
<g>
	<path style="position: relative;" id="path-3" fill="#FF6600" d="M21.948,46.845c-0.86-0.227-1.432,0.394-2.745,0.865c-1.963,0.705-4.486,2.144-6.662,5.182   c-2.968,4.144-3.821,17.584,9.693,18.103c10.705,0.411,14.731-8.157,13.166-14.417c-0.728-2.912-2.52-7.338-7.559-8.732   c-2.493-0.69-2.447-1.24-3.194-1.08C23.388,47.035,23.012,47.125,21.948,46.845"/>
</g>
<g>
	<path style="position: relative;" id="path-4" fill="#DB5800" d="M35.401,56.577c-0.728-2.912-2.52-7.338-7.559-8.733c-0.173-0.047-0.333-0.095-0.482-0.141   c2.752,2.189,3.951,5.473,4.528,7.85c1.404,5.785-1.368,13.344-8.989,15.454C33.105,71.046,36.933,62.706,35.401,56.577"/>
</g>
<g>
	<defs>
		<rect id="SVGID_3_" x="12.259" y="50.409" width="5.235" height="13.318"/>
	</defs>
	<clipPath id="SVGID_4_">
		<use xlink:href="#SVGID_3_" overflow="visible"/>
	</clipPath>
	<g clip-path="url(#SVGID_4_)">
		<path style="position: relative;" id="path-5" fill="#FFFFFF" d="M17.494,50.409c0,0-8.234,2.52-4.049,13.318C13.445,63.727,11.69,54.369,17.494,50.409"/>
	</g>
</g>
<g>
	<g>
		
			<path style="position: relative;" id="path-6" fill="none" stroke="#6083A8" stroke-width="1.5" stroke-linecap="round" stroke-linejoin="round" stroke-dasharray="2.05,6.15" d="    M127.6,10.089"/>
	</g>
</g>
<g>
	<path style="position: relative;" id="path-7" fill="#EB004A" d="M120.364,20.261c0,0-18.81-1.525-17.956,14.575c0.74,13.96,14.401,23.499,19.987,23.431   c4.994-0.061,13.599-6.893,17.016-18.3C142.828,28.559,141.054,20.013,120.364,20.261"/>
</g>
<g>
	<path style="position: relative;" id="path-8" fill="#B00038" d="M129.764,20.95c7.404,3.143,7.606,10.007,5.311,18.375c-2.949,10.749-10.01,17.534-14.779,18.619   c0.777,0.215,1.489,0.33,2.101,0.323c4.994-0.061,13.599-6.893,17.016-18.301C142.213,30.611,141.515,23.184,129.764,20.95"/>
</g>
<g>
	<path style="position: relative;" id="path-9" fill="#FFFFFF" d="M109.852,30.883c0.083,0.848-0.259,1.563-0.763,1.6c-0.503,0.036-0.978-0.622-1.061-1.469   c-0.082-0.847,0.259-1.563,0.763-1.6S109.77,30.036,109.852,30.883"/>
</g>
<g>
	<path style="position: relative;" id="path-10" fill="#FFFFFF" d="M115.782,32.751c0.083,0.847-0.259,1.563-0.763,1.6c-0.503,0.036-0.979-0.622-1.061-1.469   c-0.082-0.848,0.259-1.564,0.763-1.6C115.225,31.246,115.7,31.904,115.782,32.751"/>
</g>
<g>
	<path style="position: relative;" id="path-11" fill="#FFFFFF" d="M109.215,38.853c0.083,0.848-0.259,1.563-0.763,1.6c-0.503,0.036-0.979-0.622-1.061-1.469   s0.259-1.563,0.763-1.6S109.133,38.005,109.215,38.853"/>
</g>
<g>
	<path style="position: relative;" id="path-12" fill="#FFFFFF" d="M117.305,39.664c0.082,0.847-0.259,1.563-0.763,1.6c-0.504,0.036-0.979-0.622-1.061-1.469   c-0.083-0.848,0.259-1.564,0.763-1.6C116.747,38.158,117.223,38.816,117.305,39.664"/>
</g>
<g>
	<path style="position: relative;" id="path-13" fill="#FFFFFF" d="M112.983,44.223c0.083,0.848-0.259,1.563-0.763,1.6c-0.504,0.036-0.979-0.622-1.061-1.469   c-0.082-0.848,0.259-1.563,0.763-1.6C112.426,42.718,112.901,43.375,112.983,44.223"/>
</g>
<g>
	<path style="position: relative;" id="path-14" fill="#FFFFFF" d="M123.238,52.385c0.082,0.848-0.26,1.563-0.764,1.6c-0.503,0.036-0.978-0.622-1.061-1.469   c-0.082-0.847,0.259-1.564,0.763-1.599C122.681,50.88,123.155,51.538,123.238,52.385"/>
</g>
<g>
	<path style="position: relative;" id="path-15" fill="#FFFFFF" d="M121.835,43.204c0.082,0.847-0.259,1.563-0.763,1.6c-0.503,0.036-0.979-0.622-1.061-1.469   c-0.082-0.848,0.259-1.563,0.763-1.6S121.753,42.356,121.835,43.204"/>
</g>
<g>
	<path style="position: relative;" id="path-16" fill="#FFFFFF" d="M126.827,46.86c0.082,0.848-0.26,1.563-0.764,1.6c-0.503,0.036-0.978-0.622-1.061-1.469   c-0.082-0.848,0.259-1.563,0.763-1.6S126.744,46.013,126.827,46.86"/>
</g>
<g>
	<path style="position: relative;" id="path-17" fill="#FFFFFF" d="M122.283,33.114c0.082,0.847-0.26,1.563-0.763,1.599c-0.504,0.036-0.979-0.621-1.061-1.468   c-0.082-0.848,0.259-1.564,0.762-1.6C121.726,31.609,122.201,32.266,122.283,33.114"/>
</g>
<g>
	<path style="position: relative;" id="path-18" fill="#FFFFFF" d="M128.833,32.281c0.083,0.848-0.259,1.563-0.762,1.6c-0.504,0.036-0.979-0.622-1.062-1.469   c-0.082-0.847,0.26-1.563,0.763-1.6C128.276,30.776,128.751,31.433,128.833,32.281"/>
</g>
<g>
	<path style="position: relative;" id="path-19" fill="#FFFFFF" d="M127.302,39.269c0.082,0.848-0.26,1.563-0.764,1.6c-0.503,0.036-0.979-0.622-1.061-1.469   s0.259-1.563,0.763-1.6S127.219,38.421,127.302,39.269"/>
</g>
<g>
	<path style="position: relative;" id="path-20" fill="#FFFFFF" d="M117.636,49.564c0.082,0.848-0.26,1.563-0.764,1.6c-0.503,0.036-0.979-0.622-1.061-1.469   c-0.082-0.848,0.259-1.563,0.763-1.6S117.553,48.717,117.636,49.564"/>
</g>
<g>
	<path style="position: relative;" id="path-21" fill="#74B84B" d="M130.002,18.57c4.759-4.882,3.521-7.306,3.521-7.306c-7.322,0.829-10.37,6.466-10.37,6.466   c0.976-11.001-0.762-13.352-0.762-13.352c-2.986-0.622-3.9,1.428-3.9,1.428c4.281,7.137,3.615,12.008,3.615,12.008   c-3.07-5.355-8.087-6.802-8.087-6.802c-1.08,4.659,1.617,7.054,1.617,7.054c-6.779-3.814-9.989-1.596-9.989-1.596   s7.889,6.908,16.616,6.908c11.421,0,16.207-5.648,16.207-5.648C135.048,16.573,130.002,18.57,130.002,18.57"/>
</g>
<g>
	<path style="position: relative;" id="path-22" fill="#F5D329" d="M93.753,59.715c0,0,4.718,3.463,3.509,11.92c-1.209,8.457-6.624,15.361-15.302,18.726   c-8.679,3.363-19.533,4.33-27.118-0.654S46.5,79.509,47.296,78.125c0.631-1.097,1.051-1.527,3.955-1.569   c2.904-0.041,13.755,4.286,19.925,3.351c12.734-1.931,15.861-14.881,18.152-17.283C91.62,60.222,92.531,59.462,93.753,59.715"/>
</g>
<g>
	<path style="position: relative;" id="path-23" fill="#EBC61A" d="M97.262,71.635c1.165-8.145-3.167-11.657-3.488-11.904c0.488,3.839,0.717,10.365-4.302,18.382   c-6.224,9.941-29.275,16.103-41.873,0.736l-0.541,0.774c0.145,2.254,1.93,6.235,7.784,10.083   c7.584,4.984,18.438,4.018,27.118,0.654C90.639,86.997,96.053,80.092,97.262,71.635"/>
</g>
<g>
	<path style="position: relative;" id="path-24" fill="#FFE24F" d="M71.219,76.178c-5.872,2.113-17.064,0.336-19.968,0.377c-1.809,0.026-2.654,0.203-3.186,0.598l0.337,0.6   c30.985,15.715,44.355-14.856,45.309-18.044C90.395,58.013,85.447,71.059,71.219,76.178"/>
</g>
<g>
	<defs>
		<polyline id="SVGID_5_" points="54.801,79.141 86.441,79.141 86.441,67.608   "/>
	</defs>
	<clipPath id="SVGID_6_">
		<use xlink:href="#SVGID_5_" overflow="visible"/>
	</clipPath>
	<g clip-path="url(#SVGID_6_)">
		<path style="position: relative;" id="path-25" fill="#FFF1BA" d="M54.801,78.095c0,0,21.488,3.125,31.64-10.487C86.441,67.608,76.735,83.26,54.801,78.095"/>
	</g>
</g>
<g>
	<path style="position: relative;" id="path-26" fill="#8F7200" d="M86.809,78.047c-0.306,0.555-0.902,0.813-1.332,0.576c-0.43-0.238-0.529-0.88-0.223-1.434   c0.306-0.555,0.902-0.813,1.332-0.575S87.114,77.494,86.809,78.047"/>
</g>
<g>
	<path style="position: relative;" id="path-27" fill="#8F7200" d="M83.824,78.48c-0.14,0.254-0.414,0.372-0.61,0.264c-0.197-0.109-0.243-0.403-0.102-0.657   c0.14-0.254,0.413-0.372,0.61-0.264C83.918,77.932,83.964,78.226,83.824,78.48"/>
</g>
<g>
	<path style="position: relative;" id="path-28" fill="#8F7200" d="M66.292,85.863c-0.14,0.254-0.414,0.372-0.61,0.264s-0.243-0.403-0.102-0.657s0.413-0.372,0.61-0.263   C66.387,85.315,66.433,85.609,66.292,85.863"/>
</g>
<g>
	<path style="position: relative;" id="path-29" fill="#8F7200" d="M64.557,85.814c-0.105,0.19-0.31,0.279-0.458,0.197c-0.147-0.081-0.182-0.302-0.077-0.492   s0.31-0.279,0.458-0.198C64.628,85.403,64.663,85.624,64.557,85.814"/>
</g>
<g>
	<path style="position: relative;" id="path-30" fill="#8F7200" d="M64.821,84.234c-0.105,0.19-0.31,0.278-0.458,0.197c-0.147-0.082-0.182-0.302-0.077-0.493   c0.105-0.19,0.31-0.279,0.458-0.197S64.926,84.042,64.821,84.234"/>
</g>
<g>
	<path style="position: relative;" id="path-31" fill="#8F7200" d="M81.931,83.215c-0.167,0.302-0.491,0.441-0.725,0.313s-0.288-0.479-0.121-0.78   c0.166-0.302,0.491-0.441,0.724-0.313C82.043,82.564,82.097,82.913,81.931,83.215"/>
</g>
<g>
	<path style="position: relative;" id="path-32" fill="#F5D329" d="M93.491,59.73c0,0,5.592,1.727,7.22,10.113c1.628,8.387-1.226,16.683-8.324,22.704   c-7.099,6.021-17.037,10.49-25.836,8.266c-8.798-2.225-11.222-6.902-10.923-8.472c0.236-1.242,0.492-1.786,3.223-2.777   c2.73-0.99,14.4-0.457,19.923-3.362c11.399-5.995,10.111-19.255,11.489-22.275C91.641,60.908,92.253,59.891,93.491,59.73"/>
</g>
<g>
	<path style="position: relative;" id="path-33" fill="#EBC61A" d="M100.711,69.843c-1.568-8.077-6.812-9.976-7.196-10.105c1.719,3.468,4.074,9.559,1.958,18.776   c-2.624,11.432-22.385,24.805-39.321,14.413l-0.258,0.908c0.875,2.083,3.866,5.26,10.658,6.978   c8.799,2.225,18.737-2.244,25.835-8.266S102.34,78.23,100.711,69.843"/>
</g>
<g>
	<path style="position: relative;" id="path-34" fill="#FFE24F" d="M77.594,82.667c-4.855,3.92-16.013,5.906-18.743,6.897c-1.701,0.617-2.44,1.062-2.814,1.608l0.514,0.456   c34.424,4.697,37.041-28.567,36.898-31.891C89.76,59.222,89.359,73.169,77.594,82.667"/>
</g>
<g>
	<path style="position: relative;" id="path-35" fill="#8F7200" d="M57.495,92.519c-0.156,0.854-0.767,1.458-1.363,1.35c-0.597-0.108-0.955-0.89-0.799-1.744   c0.156-0.854,0.766-1.457,1.363-1.349C57.292,90.885,57.65,91.666,57.495,92.519"/>
</g>
<g>
	<path style="position: relative;" id="path-36" fill="#8F7200" d="M48.146,77.723c-0.156,0.854-0.767,1.458-1.363,1.35c-0.597-0.108-0.955-0.89-0.799-1.744   c0.156-0.854,0.766-1.457,1.363-1.349C47.944,76.089,48.302,76.87,48.146,77.723"/>
</g>
<g>
	<defs>
		<polyline id="SVGID_7_" points="62.453,89.828 88.584,89.828 88.584,70.841   "/>
	</defs>
	<clipPath id="SVGID_8_">
		<use xlink:href="#SVGID_7_" overflow="visible"/>
	</clipPath>
	<g clip-path="url(#SVGID_8_)">
		<path style="position: relative;" id="path-37" fill="#FFF1BA" d="M62.453,89.828c0,0,19.575-1.849,26.132-18.986C88.584,70.841,84.833,88.297,62.453,89.828"/>
	</g>
</g>
<g>
	<path style="position: relative;" id="path-38" fill="#8F7200" d="M92.935,79.326c-0.107,0.625-0.586,1.063-1.07,0.979c-0.483-0.083-0.788-0.656-0.68-1.28   c0.107-0.625,0.586-1.063,1.069-0.979C92.738,78.128,93.042,78.703,92.935,79.326"/>
</g>
<g>
	<path style="position: relative;" id="path-39" fill="#8F7200" d="M90.256,80.712c-0.049,0.285-0.269,0.486-0.49,0.448s-0.361-0.301-0.312-0.587   c0.05-0.286,0.269-0.487,0.49-0.449C90.166,80.163,90.305,80.426,90.256,80.712"/>
</g>
<g>
	<path style="position: relative;" id="path-40" fill="#8F7200" d="M69.695,94.625c-0.049,0.286-0.269,0.487-0.49,0.448c-0.222-0.038-0.361-0.301-0.312-0.587   c0.049-0.286,0.269-0.486,0.49-0.448S69.745,94.338,69.695,94.625"/>
</g>
<g>
	<path style="position: relative;" id="path-41" fill="#8F7200" d="M74.502,91.595c-0.049,0.286-0.269,0.487-0.49,0.449c-0.222-0.038-0.361-0.301-0.312-0.587   c0.049-0.286,0.269-0.487,0.49-0.449C74.412,91.046,74.551,91.309,74.502,91.595"/>
</g>
<g>
	<path style="position: relative;" id="path-42" fill="#8F7200" d="M69.134,92.763c-0.037,0.215-0.202,0.365-0.368,0.337c-0.166-0.029-0.271-0.226-0.234-0.44   c0.037-0.215,0.202-0.365,0.368-0.336C69.066,92.352,69.171,92.548,69.134,92.763"/>
</g>
<g>
	<path style="position: relative;" id="path-43" fill="#8F7200" d="M70.912,92.17c-0.037,0.215-0.202,0.366-0.368,0.337s-0.271-0.226-0.234-0.44   c0.037-0.214,0.202-0.365,0.368-0.336C70.844,91.759,70.949,91.956,70.912,92.17"/>
</g>
<g>
	<path style="position: relative;" id="path-44" fill="#8F7200" d="M90.019,85.806c-0.059,0.34-0.319,0.578-0.583,0.533c-0.263-0.046-0.428-0.358-0.37-0.698   c0.058-0.339,0.319-0.578,0.582-0.532C89.912,85.154,90.078,85.466,90.019,85.806"/>
</g>
<g>
	<path style="position: relative;" id="path-45" fill="#F5D329" d="M93.379,59.702c0,0,5.847,0.254,9.547,7.955c3.699,7.701,3.04,16.45-2.301,24.073   c-5.341,7.622-13.824,14.464-22.899,14.54c-9.075,0.077-12.604-3.834-12.713-5.428c-0.086-1.262,0.023-1.854,2.414-3.504   c2.39-1.649,13.814-4.09,18.421-8.299c9.509-8.688,4.903-21.189,5.472-24.459C91.887,61.31,92.223,60.171,93.379,59.702"/>
</g>
<g>
	<path style="position: relative;" id="path-46" fill="#EBC61A" d="M102.926,67.656c-3.563-7.417-9.117-7.926-9.521-7.953c2.542,2.919,7.724,7.833,7.301,17.282   c-0.605,13.499-16.405,31.236-35.039,24.29l-0.02,0.944c1.374,1.793,5.072,4.108,12.077,4.05   c9.075-0.076,17.558-6.917,22.899-14.541C105.966,84.106,106.625,75.356,102.926,67.656"/>
</g>
<g>
	<path style="position: relative;" id="path-47" fill="#FFE24F" d="M83.811,85.917c-3.704,5.021-13.994,9.771-16.384,11.42c-1.489,1.028-2.092,1.645-2.315,2.27l0.613,0.311   C100.215,95.742,94.32,62.899,93.34,59.72C89.641,60.156,92.786,73.75,83.811,85.917"/>
</g>
<g>
	<path style="position: relative;" id="path-48" fill="#8F7200" d="M66.862,100.541c0.066,0.865-0.372,1.604-0.977,1.65s-1.149-0.619-1.214-1.484s0.372-1.604,0.977-1.65   C66.253,99.01,66.797,99.675,66.862,100.541"/>
</g>
<g>
	<defs>
		<rect id="SVGID_9_" x="73.802" y="67.83" width="18.624" height="28.247"/>
	</defs>
	<clipPath id="SVGID_10_">
		<use xlink:href="#SVGID_9_" overflow="visible"/>
	</clipPath>
	<g clip-path="url(#SVGID_10_)">
		<path style="position: relative;" id="path-49" fill="#FFF1BA" d="M73.802,96.077c0,0,17.79-8.672,18.618-28.247C92.42,67.83,93.25,88.361,73.802,96.077"/>
	</g>
</g>
<g>
	<path style="position: relative;" id="path-50" fill="#8F7200" d="M97.805,78.799c0.054,0.631-0.298,1.177-0.787,1.219c-0.489,0.042-0.929-0.436-0.983-1.066   c-0.054-0.631,0.298-1.177,0.787-1.219C97.311,77.691,97.751,78.168,97.805,78.799"/>
</g>
<g>
	<path style="position: relative;" id="path-51" fill="#8F7200" d="M95.565,80.819c0.024,0.289-0.137,0.539-0.361,0.558c-0.224,0.02-0.425-0.199-0.45-0.488   s0.137-0.539,0.36-0.559C95.338,80.31,95.54,80.529,95.565,80.819"/>
</g>
<g>
	<path style="position: relative;" id="path-52" fill="#8F7200" d="M79.119,97.74c0.025,0.289-0.137,0.539-0.36,0.559c-0.224,0.019-0.426-0.2-0.45-0.489   c-0.025-0.289,0.136-0.539,0.36-0.559C78.892,97.232,79.094,97.451,79.119,97.74"/>
</g>
<g>
	<path style="position: relative;" id="path-53" fill="#8F7200" d="M80.45,97.997c0.018,0.217-0.103,0.405-0.271,0.419c-0.168,0.015-0.319-0.149-0.338-0.366   c-0.018-0.218,0.103-0.404,0.271-0.419S80.431,97.78,80.45,97.997"/>
</g>
<g>
	<path style="position: relative;" id="path-54" fill="#8F7200" d="M77.566,99.877c0.019,0.217-0.103,0.405-0.27,0.419c-0.168,0.015-0.319-0.149-0.338-0.366   c-0.019-0.218,0.103-0.405,0.27-0.419C77.396,99.497,77.548,99.661,77.566,99.877"/>
</g>
<g>
	<path style="position: relative;" id="path-55" fill="#8F7200" d="M96.625,85.806c0.029,0.344-0.162,0.641-0.428,0.664c-0.266,0.022-0.505-0.237-0.535-0.581   c-0.029-0.344,0.163-0.641,0.428-0.663C96.357,85.203,96.596,85.463,96.625,85.806"/>
</g>
<g>
	<path style="position: relative;" id="path-56" fill="#8F7200" d="M90.846,53.492c0,0,1.98,2.738,1.563,6.24c0,0,0.468,0.545,1.038,0.042c0.699-2.98,0.596-5.84,0.342-7.515   C93.789,52.26,92.103,52.341,90.846,53.492"/>
</g>
<g>
	<g>
		
			<path style="position: relative;" id="path-57" fill="none" stroke="#6083A8" stroke-width="1.5" stroke-linecap="round" stroke-linejoin="round" stroke-dasharray="1.946,5.839" d="    M151.378,77.238"/>
	</g>
	<g>
		
			<path style="position: relative;" id="path-58" fill="none" stroke="#6083A8" stroke-width="1.5" stroke-linecap="round" stroke-linejoin="round" stroke-dasharray="1.947,5.84" d="    M141.562,84.726"/>
	</g>
	<g>
		
			<path style="position: relative;" id="path-59" fill="none" stroke="#6083A8" stroke-width="1.5" stroke-linecap="round" stroke-linejoin="round" stroke-dasharray="1.947,5.84" d="    M138.04,75.89"/>
	</g>
	<g>
		
			<path style="position: relative;" id="path-60" fill="none" stroke="#6083A8" stroke-width="1.5" stroke-linecap="round" stroke-linejoin="round" stroke-dasharray="1.947,5.84" d="    M148.771,76.519"/>
	</g>
	<g>
		<path style="position: relative;" id="path-61" fill="none" stroke="#6083A8" stroke-width="1.5" stroke-linecap="round" stroke-linejoin="round" d="M142.454,85.425"/>
	</g>
	<g>
		<path style="position: relative;" id="path-62" fill="none" stroke="#6083A8" stroke-width="1.5" stroke-linecap="round" stroke-linejoin="round" d="M142.439,85.156"/>
	</g>
</g>
<g>
	<path style="position: relative;" id="path-63" fill="#DCE223" d="M148.754,86.527c0,0-5.675-0.158-7.725,3.704c-2.05,3.863-2.443,11.115-4.651,14.031   c-2.206,2.916-8.512,10.404-4.571,20.809c3.941,10.406,12.218,11.115,16.237,11.51c4.021,0.393,13.085-0.711,17.184-8.986   c4.099-8.277,3.39-15.213-1.261-21.047c-4.651-5.832-4.493-6.936-5.676-11.822C157.109,89.838,154.98,86.527,148.754,86.527"/>
</g>
<g>
	<path style="position: relative;" id="path-64" fill="#BABF1D" d="M163.967,106.547c-4.651-5.832-4.493-6.936-5.676-11.822c-1.182-4.887-3.311-8.198-9.537-8.198   c0,0-0.087-0.002-0.242,0.002c4.38,0.162,5.757,3.923,6.464,7.21c1.082,5.029,0.934,6.467,5.189,12.469   c4.255,6.002,3.735,14.334-0.229,21.502c-2.962,5.354-8.132,8.035-11.979,8.861c0.028,0.004,0.06,0.006,0.087,0.01   c4.021,0.395,13.085-0.711,17.184-8.986C169.326,119.317,168.617,112.381,163.967,106.547"/>
</g>
<g>
	<defs>
		<rect id="SVGID_11_" x="133.631" y="106.379" width="11.796" height="27.869"/>
	</defs>
	<clipPath id="SVGID_12_">
		<use xlink:href="#SVGID_11_" overflow="visible"/>
	</clipPath>
	<g clip-path="url(#SVGID_12_)">
		<path style="position: relative;" id="path-65" fill="#FFFFFF" d="M137.013,123.719c-2.49-7.254-0.8-13.193,1.292-17.34c-2.582,3.307-6.777,9.656-3.433,18.045    c2.5,6.27,6.78,8.752,10.556,9.822C142.265,132.661,139.048,129.649,137.013,123.719"/>
	</g>
</g>
<g>
	<path style="position: relative;" id="path-66" fill="#74B84B" d="M149.187,84.722c0,0-0.161-1.148-4.571-1.654c-4.809-0.553-4.02-6.857-4.02-6.857s1.733,1.104,4.649,1.576   C148.162,78.259,150.133,81.255,149.187,84.722"/>
</g>
<g>
	<path style="position: relative;" id="path-67" fill="#42362B" d="M156.059,77.625c-5.693,1.568-7.796,9.164-7.715,9.332c0.172,0.138,0.423,0.013,0.423,0.013   c2.37-6.47,7.607-7.296,7.607-7.296C157.004,78.255,156.059,77.625,156.059,77.625"/>
</g>
<g>
	<path style="position: relative;" id="path-68" fill="#74B84B" d="M33.169,111.193c0,0,0.254-1.811,7.207-2.609c7.58-0.869,6.338-10.811,6.338-10.811   s-2.734,1.74-7.332,2.486C34.784,101.003,31.678,105.726,33.169,111.193"/>
</g>
<g>
	<path style="position: relative;" id="path-69" fill="#5E4023" d="M24.252,103.371c0,0,10.281,2.17,10.624,14.393c0,0-0.84-8.688-11.235-12.686   C23.641,105.078,23.681,104.056,24.252,103.371"/>
</g>
<g>
	<path style="position: relative;" id="path-70" fill="#FF0000" d="M34.39,115.158c0,0-8.567-7.424-18.85-1.143c-10.281,6.285-8.91,35.072,17.136,35.186   c20.703,0.092,27.875-15.193,24.333-26.846C53.468,110.703,41.473,109.904,34.39,115.158"/>
</g>
<g>
	<path style="position: relative;" id="path-71" fill="#DB0000" d="M57.009,122.355c-2.532-8.334-9.39-11.113-15.681-10.1c3.611,1.945,6.569,5.131,7.764,10.283   c2.577,11.105-4.121,23.568-17.257,26.645c0.278,0.008,0.557,0.018,0.841,0.02C53.379,149.292,60.551,134.007,57.009,122.355"/>
</g>
<g>
	<defs>
		<rect id="SVGID_13_" x="12.782" y="113.529" width="9.613" height="25.068"/>
	</defs>
	<clipPath id="SVGID_14_">
		<use xlink:href="#SVGID_13_" overflow="visible"/>
	</clipPath>
	<g clip-path="url(#SVGID_14_)">
		<path style="position: relative;" id="path-72" fill="#FFFFFF" d="M22.396,113.529c0,0-15.581,2.871-7.07,25.068C15.325,138.597,10.629,121.148,22.396,113.529"/>
	</g>
</g>
<g>
	<g>
		
			<path style="position: relative;" id="path-73" fill="none" stroke="#6083A8" stroke-width="1.5" stroke-linecap="round" stroke-linejoin="round" stroke-dasharray="1.608,4.824" d="    M143.948,42.894"/>
	</g>
	<g>
		<path style="position: relative;" id="path-74" fill="none" stroke="#6083A8" stroke-width="1.5" stroke-linecap="round" stroke-linejoin="round" d="M171.365,77.751"/>
	</g>
</g>
<g>
	<path style="position: relative;" id="path-75" fill="#77A117" d="M175.684,46.737c0,0,3.622-1.91,4.976-4.502c1.354-2.59,2.452-2.027,2.452-2.027s-1.379-1.438-2.84-0.861   c0,0,1.881-0.783,2.638-3.832s2.275-2.693,2.275-2.693s-3.5-2.631-9.638,2.322c0,0,0.895-1.281,0.157-2.984   c0,0-9.333,5.51-6.089,12.107C170.854,46.786,173.827,46.899,175.684,46.737"/>
</g>
<g>
	<path style="position: relative;" id="path-76" fill="#91C41C" d="M148.309,49.288c0,0,1.557-2.818,4.078-2.521c0,0-3.263-0.443-5.709-4.893   c-2.447-4.449-4.672-3.264-4.672-3.264s4.375-5.561,16.017-0.371c0,0-1.928-1.631-1.483-4.596c0,0,16.863,4.734,14.533,16.387   c-0.89,4.447-5.487,5.857-8.453,6.377"/>
</g>
<g>
	<path style="position: relative;" id="path-77" fill="#91C41C" d="M162.619,56.407c0,0-6.45-1.484-9.639-4.969"/>
</g>
<g>
	<path style="position: relative;" id="path-78" fill="#8C3FC7" d="M186.947,75.525c0,3.584-2.904,6.488-6.487,6.488c-3.584,0-6.488-2.904-6.488-6.488   c0-3.582,2.904-6.489,6.488-6.489C184.043,69.036,186.947,71.943,186.947,75.525"/>
</g>
<g>
	<defs>
		<rect id="SVGID_15_" x="175.017" y="71.464" width="2.524" height="7.426"/>
	</defs>
	<clipPath id="SVGID_16_">
		<use xlink:href="#SVGID_15_" overflow="visible"/>
	</clipPath>
	<g clip-path="url(#SVGID_16_)">
		<path style="position: relative;" id="path-79" fill="#FFFFFF" d="M175.825,74.968c0-1.367,0.493-2.605,1.29-3.504c-1.258,0.748-2.099,2.078-2.099,3.602    c0,1.689,1.033,3.143,2.524,3.824C176.499,77.982,175.825,76.566,175.825,74.968"/>
	</g>
</g>
<g>
	<path style="position: relative;" id="path-80" fill="#662E91" d="M185.08,70.974c0.57,0.965,0.903,2.088,0.903,3.291c0,3.582-2.904,6.488-6.487,6.488   c-1.81,0-3.443-0.742-4.62-1.936c1.128,1.91,3.203,3.195,5.584,3.195c3.583,0,6.487-2.904,6.487-6.488   C186.947,73.751,186.234,72.144,185.08,70.974"/>
</g>
<g>
	<path style="position: relative;" id="path-81" fill="#8C3FC7" d="M178.717,68.11c0,3.583-2.904,6.489-6.487,6.489c-3.584,0-6.488-2.906-6.488-6.489   c0-3.584,2.904-6.488,6.488-6.488C175.813,61.622,178.717,64.526,178.717,68.11"/>
</g>
<g>
	<defs>
		<rect id="SVGID_17_" x="166.786" y="64.05" width="2.524" height="7.426"/>
	</defs>
	<clipPath id="SVGID_18_">
		<use xlink:href="#SVGID_17_" overflow="visible"/>
	</clipPath>
	<g clip-path="url(#SVGID_18_)">
		<path style="position: relative;" id="path-82" fill="#FFFFFF" d="M167.595,67.554c0-1.367,0.493-2.607,1.29-3.504c-1.258,0.746-2.099,2.078-2.099,3.602    c0,1.688,1.033,3.143,2.524,3.825C168.269,70.568,167.595,69.149,167.595,67.554"/>
	</g>
</g>
<g>
	<path style="position: relative;" id="path-83" fill="#662E91" d="M176.85,63.558c0.57,0.967,0.903,2.088,0.903,3.291c0,3.584-2.904,6.489-6.488,6.489   c-1.809,0-3.443-0.74-4.619-1.936c1.128,1.91,3.203,3.197,5.584,3.197c3.583,0,6.487-2.906,6.487-6.489   C178.717,66.335,178.004,64.729,176.85,63.558"/>
</g>
<g>
	<path style="position: relative;" id="path-84" fill="#8C3FC7" d="M190.21,65.589c0,3.584-2.904,6.489-6.488,6.489c-3.583,0-6.487-2.905-6.487-6.489s2.904-6.488,6.487-6.488   C187.306,59.101,190.21,62.005,190.21,65.589"/>
</g>
<g>
	<defs>
		<rect id="SVGID_19_" x="178.279" y="61.528" width="2.524" height="7.426"/>
	</defs>
	<clipPath id="SVGID_20_">
		<use xlink:href="#SVGID_19_" overflow="visible"/>
	</clipPath>
	<g clip-path="url(#SVGID_20_)">
		<path style="position: relative;" id="path-85" fill="#FFFFFF" d="M179.088,65.032c0-1.367,0.493-2.605,1.29-3.504c-1.258,0.746-2.099,2.078-2.099,3.602    c0,1.689,1.033,3.143,2.524,3.824C179.762,68.046,179.088,66.628,179.088,65.032"/>
	</g>
</g>
<g>
	<path style="position: relative;" id="path-86" fill="#662E91" d="M188.342,61.036c0.571,0.967,0.904,2.09,0.904,3.293c0,3.582-2.904,6.489-6.488,6.489   c-1.809,0-3.443-0.742-4.62-1.938c1.129,1.913,3.204,3.198,5.584,3.198c3.584,0,6.488-2.905,6.488-6.489   C190.21,63.815,189.497,62.208,188.342,61.036"/>
</g>
<g>
	<path style="position: relative;" id="path-87" fill="#8C3FC7" d="M191.174,53.8c0,3.582-2.904,6.488-6.487,6.488c-3.584,0-6.488-2.906-6.488-6.488   c0-3.584,2.904-6.488,6.488-6.488C188.27,47.312,191.174,50.216,191.174,53.8"/>
</g>
<g>
	<defs>
		<rect id="SVGID_21_" x="179.243" y="49.737" width="2.524" height="7.428"/>
	</defs>
	<clipPath id="SVGID_22_">
		<use xlink:href="#SVGID_21_" overflow="visible"/>
	</clipPath>
	<g clip-path="url(#SVGID_22_)">
		<path style="position: relative;" id="path-88" fill="#FFFFFF" d="M180.052,53.243c0-1.369,0.493-2.607,1.29-3.506c-1.258,0.748-2.099,2.08-2.099,3.602    c0,1.689,1.033,3.145,2.524,3.826C180.726,56.257,180.052,54.839,180.052,53.243"/>
	</g>
</g>
<g>
	<path style="position: relative;" id="path-89" fill="#662E91" d="M189.307,49.247c0.57,0.967,0.903,2.088,0.903,3.291c0,3.584-2.904,6.488-6.488,6.488   c-1.809,0-3.443-0.742-4.62-1.936c1.129,1.91,3.204,3.197,5.585,3.197c3.583,0,6.487-2.906,6.487-6.488   C191.174,52.024,190.461,50.419,189.307,49.247"/>
</g>
<g>
	<path style="position: relative;" id="path-90" fill="#8C3FC7" d="M181.387,59.36c0,3.584-2.905,6.488-6.488,6.488s-6.488-2.904-6.488-6.488s2.905-6.488,6.488-6.488   S181.387,55.776,181.387,59.36"/>
</g>
<g>
	<defs>
		<rect id="SVGID_23_" x="169.455" y="55.3" width="2.525" height="7.426"/>
	</defs>
	<clipPath id="SVGID_24_">
		<use xlink:href="#SVGID_23_" overflow="visible"/>
	</clipPath>
	<g clip-path="url(#SVGID_24_)">
		<path style="position: relative;" id="path-91" fill="#FFFFFF" d="M170.265,58.804c0-1.367,0.492-2.605,1.289-3.504c-1.258,0.746-2.098,2.078-2.098,3.602    c0,1.689,1.032,3.143,2.524,3.824C170.938,61.817,170.265,60.401,170.265,58.804"/>
	</g>
</g>
<g>
	<path style="position: relative;" id="path-92" fill="#662E91" d="M179.519,54.808c0.57,0.967,0.904,2.09,0.904,3.293c0,3.582-2.905,6.488-6.488,6.488   c-1.809,0-3.443-0.742-4.62-1.938c1.129,1.912,3.204,3.197,5.584,3.197c3.583,0,6.488-2.904,6.488-6.488   C181.387,57.587,180.673,55.979,179.519,54.808"/>
</g>
<g>
	<path style="position: relative;" id="path-93" fill="#8C3FC7" d="M169.745,61.214c0,3.584-2.904,6.488-6.488,6.488c-3.583,0-6.488-2.904-6.488-6.488   c0-3.582,2.905-6.488,6.488-6.488C166.841,54.726,169.745,57.632,169.745,61.214"/>
</g>
<g>
	<defs>
		<rect id="SVGID_25_" x="157.814" y="57.153" width="2.524" height="7.426"/>
	</defs>
	<clipPath id="SVGID_26_">
		<use xlink:href="#SVGID_25_" overflow="visible"/>
	</clipPath>
	<g clip-path="url(#SVGID_26_)">
		<path style="position: relative;" id="path-94" fill="#FFFFFF" d="M158.623,60.657c0-1.367,0.493-2.605,1.29-3.504c-1.258,0.748-2.099,2.078-2.099,3.602    c0,1.689,1.032,3.143,2.524,3.824C159.296,63.671,158.623,62.255,158.623,60.657"/>
	</g>
</g>
<g>
	<path style="position: relative;" id="path-95" fill="#662E91" d="M167.877,56.661c0.571,0.967,0.904,2.09,0.904,3.293c0,3.582-2.905,6.488-6.488,6.488   c-1.809,0-3.443-0.742-4.62-1.938c1.129,1.912,3.204,3.197,5.584,3.197c3.584,0,6.488-2.904,6.488-6.488   C169.745,59.44,169.031,57.833,167.877,56.661"/>
</g>
<g>
	<path style="position: relative;" id="path-96" fill="#8C3FC7" d="M172.341,52.095c0,3.582-2.905,6.486-6.488,6.486c-3.584,0-6.488-2.904-6.488-6.486   c0-3.584,2.904-6.488,6.488-6.488C169.436,45.606,172.341,48.511,172.341,52.095"/>
</g>
<g>
	<defs>
		<rect id="SVGID_27_" x="160.409" y="48.032" width="2.524" height="7.428"/>
	</defs>
	<clipPath id="SVGID_28_">
		<use xlink:href="#SVGID_27_" overflow="visible"/>
	</clipPath>
	<g clip-path="url(#SVGID_28_)">
		<path style="position: relative;" id="path-97" fill="#FFFFFF" d="M161.218,51.538c0-1.369,0.493-2.607,1.29-3.506c-1.258,0.748-2.099,2.08-2.099,3.602    c0,1.689,1.033,3.145,2.524,3.826C161.892,54.55,161.218,53.134,161.218,51.538"/>
	</g>
</g>
<g>
	<path style="position: relative;" id="path-98" fill="#662E91" d="M170.473,47.542c0.57,0.965,0.903,2.088,0.903,3.291c0,3.584-2.904,6.488-6.487,6.488   c-1.81,0-3.443-0.742-4.62-1.936c1.129,1.91,3.203,3.195,5.584,3.195c3.583,0,6.488-2.904,6.488-6.486   C172.341,50.319,171.627,48.714,170.473,47.542"/>
</g>
<g>
	<path style="position: relative;" id="path-99" fill="#8C3FC7" d="M182.351,47.868c0,3.582-2.904,6.486-6.488,6.486c-3.583,0-6.488-2.904-6.488-6.486   c0-3.584,2.905-6.488,6.488-6.488C179.446,41.38,182.351,44.284,182.351,47.868"/>
</g>
<g>
	<defs>
		<rect id="SVGID_29_" x="170.419" y="43.806" width="2.525" height="7.428"/>
	</defs>
	<clipPath id="SVGID_30_">
		<use xlink:href="#SVGID_29_" overflow="visible"/>
	</clipPath>
	<g clip-path="url(#SVGID_30_)">
		<path style="position: relative;" id="path-100" fill="#FFFFFF" d="M171.229,47.312c0-1.369,0.492-2.607,1.289-3.506c-1.258,0.748-2.098,2.08-2.098,3.602    c0,1.689,1.032,3.145,2.524,3.826C171.901,50.323,171.229,48.907,171.229,47.312"/>
	</g>
</g>
<g>
	<path style="position: relative;" id="path-101" fill="#662E91" d="M180.482,43.315c0.57,0.965,0.904,2.088,0.904,3.291c0,3.584-2.905,6.488-6.488,6.488   c-1.809,0-3.443-0.742-4.62-1.936c1.129,1.91,3.204,3.195,5.584,3.195c3.583,0,6.488-2.904,6.488-6.486   C182.351,46.093,181.637,44.487,180.482,43.315"/>
</g>
<g>
	<g>
		
			<path style="position: relative;" id="path-102" fill="none" stroke="#6083A8" stroke-width="1.5" stroke-linecap="round" stroke-linejoin="round" stroke-dasharray="2.005,6.014" d="    M64.841,53.279"/>
	</g>
	<g>
		
			<path style="position: relative;" id="path-103" fill="none" stroke="#6083A8" stroke-width="1.5" stroke-linecap="round" stroke-linejoin="round" stroke-dasharray="1.96,5.881" d="    M68.273,53.477"/>
	</g>
</g>
<g>
	<path style="position: relative;" id="path-104" fill="#59BF1D" d="M68.712,10.557c0,0-2.194-1.461-9.71,5.261c-8.194,7.329-17.708-3.528-17.708-3.528   s4.491-1.277,9.695-5.514C56.195,2.54,64.253,3.716,68.712,10.557"/>
</g>
<g>
	<path style="position: relative;" id="path-105" fill="#8CD42F" d="M68.637,11.862c0,0,1.252-0.833,5.541,3.002c4.676,4.182,10.105-2.013,10.105-2.013   s-2.563-0.729-5.533-3.146S71.181,7.958,68.637,11.862"/>
</g>
<g>
	<path style="position: relative;" id="path-106" fill="#734512" d="M52.058,37.395c-0.031,0-0.063-0.001-0.094-0.004c-0.584-0.052-1.016-0.567-0.964-1.151   c0.056-0.638,1.554-15.74,16.905-26.575c0.317-0.223,0.729-0.257,1.077-0.087c0.348,0.169,0.576,0.515,0.596,0.902   c0.007,0.147,0.811,14.774,7.813,21.217c0.432,0.396,0.459,1.068,0.063,1.5c-0.397,0.432-1.068,0.461-1.5,0.063   c-6.114-5.625-7.863-16.347-8.334-20.742c-13.146,10.182-14.491,23.769-14.503,23.91C53.066,36.979,52.603,37.395,52.058,37.395"/>
</g>
<g>
	<path style="position: relative;" id="path-107" fill="#FF004C" d="M75.611,31.142c0,0-5.23-3.018-9.647,0.636s-4.056,19.443,8.615,19.735   c12.756,0.293,14.666-9.666,12.049-17.379C84.01,26.419,77.072,30.109,75.611,31.142"/>
</g>
<g>
	<path style="position: relative;" id="path-108" fill="#CF003E" d="M86.627,34.133c-0.737-2.174-1.819-3.442-3.024-4.12c0.127,0.3,0.249,0.612,0.361,0.952   c2.719,8.254,0.709,18.919-12.605,18.625c-1.506-0.033-2.837-0.291-4.021-0.711c1.74,1.543,4.114,2.561,7.24,2.633   C87.334,51.806,89.245,41.847,86.627,34.133"/>
</g>
<g>
	<defs>
		<rect id="SVGID_31_" x="65.31" y="32.474" width="5.444" height="9.368"/>
	</defs>
	<clipPath id="SVGID_32_">
		<use xlink:href="#SVGID_31_" overflow="visible"/>
	</clipPath>
	<g clip-path="url(#SVGID_32_)">
		<path style="position: relative;" id="path-109" fill="#FFFFFF" d="M70.754,32.478c0,0-7.549-0.452-4.869,9.364C65.886,41.842,65.701,34.998,70.754,32.478"/>
	</g>
</g>
<g>
	<path style="position: relative;" id="path-110" fill="#FF004C" d="M52.673,34.116c0,0-5.401-2.701-9.592,1.21c-4.191,3.912-2.887,19.651,9.779,19.185   c12.75-0.469,14.063-10.524,10.989-18.067C60.776,28.9,54.07,32.998,52.673,34.116"/>
</g>
<g>
	<path style="position: relative;" id="path-111" fill="#CF003E" d="M63.849,36.444c-0.867-2.126-2.021-3.328-3.265-3.932c0.144,0.292,0.285,0.596,0.417,0.928   c3.207,8.077,1.837,18.843-11.47,19.345c-1.506,0.057-2.85-0.121-4.057-0.47c1.83,1.438,4.26,2.311,7.385,2.196   C65.61,54.043,66.922,43.988,63.849,36.444"/>
</g>
<g>
	<defs>
		<rect id="SVGID_33_" x="42.788" y="35.74" width="5.117" height="9.638"/>
	</defs>
	<clipPath id="SVGID_34_">
		<use xlink:href="#SVGID_33_" overflow="visible"/>
	</clipPath>
	<g clip-path="url(#SVGID_34_)">
		<path style="position: relative;" id="path-112" fill="#FFFFFF" d="M47.905,35.74c0,0-7.563,0-4.3,9.638C43.605,45.378,43.012,38.557,47.905,35.74"/>
	</g>
</g>
</svg>